<?xml version="1.0" encoding="UTF-8" standalone="no"?>
<!-- Created with Inkscape (http://www.inkscape.org/) -->

<svg
   xmlns:dc="http://purl.org/dc/elements/1.1/"
   xmlns:cc="http://creativecommons.org/ns#"
   xmlns:rdf="http://www.w3.org/1999/02/22-rdf-syntax-ns#"
   xmlns:svg="http://www.w3.org/2000/svg"
   xmlns="http://www.w3.org/2000/svg"
   xmlns:sodipodi="http://sodipodi.sourceforge.net/DTD/sodipodi-0.dtd"
   xmlns:inkscape="http://www.inkscape.org/namespaces/inkscape"
   id="svg3412"
   version="1.1"
   inkscape:version="0.91 r13725"
   xml:space="preserve"
   width="70.668526"
   height="34.207417"
   viewBox="0 0 70.668526 34.207417"
   sodipodi:docname="us_goship_icon.svg"
   inkscape:export-filename="/Users/abarna/Desktop/test"
   inkscape:export-xdpi="89.148598"
   inkscape:export-ydpi="89.148598"><metadata
     id="metadata3418"><rdf:RDF><cc:Work
         rdf:about=""><dc:format>image/svg+xml</dc:format><dc:type
           rdf:resource="http://purl.org/dc/dcmitype/StillImage" /><dc:title></dc:title></cc:Work></rdf:RDF></metadata><defs
     id="defs3416"><clipPath
       clipPathUnits="userSpaceOnUse"
       id="clipPath3426"><path
         d="m 0,50.125 100,0 L 100,0 0,0 0,50.125 Z"
         id="path3428"
         inkscape:connector-curvature="0" /></clipPath></defs><sodipodi:namedview
     pagecolor="#ffffff"
     bordercolor="#666666"
     borderopacity="1"
     objecttolerance="10"
     gridtolerance="10"
     guidetolerance="10"
     inkscape:pageopacity="0"
     inkscape:pageshadow="2"
     inkscape:window-width="1145"
     inkscape:window-height="673"
     id="namedview3414"
     showgrid="false"
     fit-margin-top="0"
     fit-margin-left="0"
     fit-margin-right="0"
     fit-margin-bottom="0"
     inkscape:zoom="2.48"
     inkscape:cx="-2.6211944"
     inkscape:cy="17.65887"
     inkscape:window-x="20"
     inkscape:window-y="42"
     inkscape:window-maximized="0"
     inkscape:current-layer="g3420" /><g
     id="g3420"
     inkscape:groupmode="layer"
     inkscape:label="icon"
     transform="matrix(1.25,0,0,-1.25,-2.2665895e-4,47.876673)"><g
       id="g3422"><g
         id="g3424"
         clip-path="url(#clipPath3426)"><g
           id="g3430"
           transform="translate(0.019,32.0869)"><path
             d="M 0,0 C 0,0 -0.029,-0.015 -0.015,-0.051 0,-0.09 3.725,-12.183 4.492,-21.037 c 0.013,-0.111 0.123,-0.102 0.123,-0.102 0,0 47.944,-0.012 47.969,-0.012 0.059,-0.008 0.11,0.084 0.083,0.04 -0.02,-0.035 3.835,5.369 3.849,8.175 0,0.006 0,0.078 -0.047,0.086 -0.048,0.009 -41.959,8.068 -41.959,8.068 0,0 -5.315,0.266 -6.613,4.314 -0.004,0.012 -0.018,0.035 -0.033,0.037 L 0,0 Z"
             style="fill:#fafeff;fill-opacity:1;fill-rule:nonzero;stroke:none"
             id="path3432"
             inkscape:connector-curvature="0" /></g><g
           id="g3434"
           transform="translate(25.4927,36.5903)"><path
             d="m 0,0 0.041,-2.741 c 0,0 11.434,3.015 17.735,-2.398 l -0.04,2.946 C 17.736,-2.193 10.91,4.866 0,0"
             style="fill:#fafeff;fill-opacity:1;fill-rule:nonzero;stroke:none"
             id="path3436"
             inkscape:connector-curvature="0" /></g><g
           id="g3438"
           transform="translate(25.5332,32.5464)"><path
             d="m 0,0 0.041,-2.808 c 0,0 12.723,0.958 17.128,-2.468 l 0,-5.276 0.848,-0.479 0,8.976 C 18.017,-2.055 8.97,2.81 0,0"
             style="fill:#fafeff;fill-opacity:1;fill-rule:nonzero;stroke:none"
             id="path3440"
             inkscape:connector-curvature="0" /></g></g></g></g></svg>