<?xml version="1.0" encoding="UTF-8" standalone="no"?>
<!-- Created with Inkscape (http://www.inkscape.org/) -->

<svg
   xmlns:dc="http://purl.org/dc/elements/1.1/"
   xmlns:cc="http://creativecommons.org/ns#"
   xmlns:rdf="http://www.w3.org/1999/02/22-rdf-syntax-ns#"
   xmlns:svg="http://www.w3.org/2000/svg"
   xmlns="http://www.w3.org/2000/svg"
   xmlns:sodipodi="http://sodipodi.sourceforge.net/DTD/sodipodi-0.dtd"
   xmlns:inkscape="http://www.inkscape.org/namespaces/inkscape"
   id="svg3390"
   version="1.1"
   inkscape:version="0.91 r13725"
   width="792"
   height="792"
   viewBox="0 0 792 792"
   sodipodi:docname="go-ship.svg">
  <metadata
     id="metadata3396">
    <rdf:RDF>
      <cc:Work
         rdf:about="">
        <dc:format>image/svg+xml</dc:format>
        <dc:type
           rdf:resource="http://purl.org/dc/dcmitype/StillImage" />
        <dc:title></dc:title>
      </cc:Work>
    </rdf:RDF>
  </metadata>
  <defs
     id="defs3394" />
  <sodipodi:namedview
     pagecolor="#ffffff"
     bordercolor="#666666"
     borderopacity="1"
     objecttolerance="10"
     gridtolerance="10"
     guidetolerance="10"
     inkscape:pageopacity="0"
     inkscape:pageshadow="2"
     inkscape:window-width="1277"
     inkscape:window-height="742"
     id="namedview3392"
     showgrid="false"
     inkscape:zoom="0.72348485"
     inkscape:cx="396"
     inkscape:cy="396"
     inkscape:window-x="65"
     inkscape:window-y="24"
     inkscape:window-maximized="1"
     inkscape:current-layer="svg3390" />
  <g
     id="g3408">
    <path
       style="fill:#17abd7"
       d="m 391.72971,780.74512 c -2.59982,-10.55315 -6.49565,-25.46834 -10.25078,-39.24512 -0.89948,-3.3 -3.14373,-11.85 -4.98723,-19 -5.89781,-22.87462 -7.2456,-27.49854 -8.43198,-28.92805 -0.63945,-0.77048 -3.72281,-1.60945 -6.86058,-1.86672 -16.6411,-1.36445 -37.73292,-6.1418 -60.941,-13.80327 -14.63516,-4.83138 -18.83426,-6.5976 -36.75814,-15.46119 -20.4992,-10.13712 -31.24341,-16.75426 -50,-30.79402 C 204.55893,624.95414 166.14231,586.98626 161.24285,580 144.3414,555.89983 137.14314,544.16879 128.56718,526.74829 113.02299,495.17311 103.02487,461.23163 100.36266,431 100.04784,427.425 99.477898,424.16294 99.096119,423.75099 98.429003,423.03114 85.488768,419.30804 74,416.53045 c -3.025,-0.73134 -9.1,-2.30778 -13.5,-3.50319 -14.332309,-3.89389 -37.906082,-10.10884 -42,-11.07281 -3.861039,-0.90914 -8.427845,-2.15364 -15.25,-4.15576 -5.4014729,-1.5852 -3.84020468,-3.32377 5,-5.56782 4.5375,-1.15183 10.95,-2.85172 14.25,-3.77753 3.3,-0.92582 8.7,-2.33004 12,-3.12049 9.355807,-2.24101 15.690527,-3.89241 34,-8.86348 9.35,-2.53854 19.25,-5.09509 22,-5.68122 7.163751,-1.52686 9.232761,-3.77253 9.79702,-10.63354 0.25577,-3.11004 1.195,-9.92961 2.08717,-15.15461 7.20893,-42.21911 24.1665,-84.03235 47.61581,-117.409 3.025,-4.30564 6.17505,-8.83588 7.00012,-10.06719 6.664,-9.94526 35.51364,-40.80821 45.49988,-48.67517 2.75,-2.16639 8.15,-6.42924 12,-9.47299 7.59315,-6.00302 24.50461,-17.52735 30.97072,-21.10503 5.21682,-2.88644 31.84114,-16.05911 37.02928,-18.32063 9.67441,-4.21709 38.38542,-12.97731 50.5,-15.40841 4.675,-0.93816 10.3,-2.13206 12.5,-2.65311 2.2,-0.52105 8.03389,-1.27161 12.9642,-1.66792 8.23436,-0.661885 9.06299,-0.924092 10.17763,-3.22055 1.29116,-2.660144 4.80638,-14.895041 6.89548,-24 0.69407,-3.025 2.24059,-9.1 3.43671,-13.5 4.02303,-14.799014 9.04893,-33.910335 12.29431,-46.75 4.25305,-16.8262832 5.21029,-16.8262832 9.46334,0 3.24538,12.839665 8.27128,31.950986 12.29431,46.75 1.19612,4.4 2.74264,10.475 3.43671,13.5 2.0891,9.104959 5.60432,21.339856 6.89548,24 1.11464,2.296458 1.94327,2.558665 10.17763,3.22055 4.93031,0.39631 10.7642,1.14687 12.9642,1.66792 2.2,0.52105 7.825,1.71495 12.5,2.65311 12.80048,2.56875 33.28037,8.81302 48,14.63508 7.07671,2.79906 30.7162,14.21772 39.52928,19.09396 6.46611,3.57768 23.37757,15.10201 30.97072,21.10503 3.85,3.04375 9.25,7.3066 12,9.47299 9.98624,7.86696 38.83588,38.72991 45.49988,48.67517 0.82507,1.23131 3.97512,5.76155 7.00012,10.06719 23.44643,33.37255 40.37698,75.11483 47.62076,117.409 0.89489,5.225 1.83364,12.28838 2.08611,15.6964 0.26903,3.63147 1.04662,6.68405 1.87852,7.37447 0.78072,0.64793 4.00589,1.76819 7.16705,2.48946 3.16116,0.72127 13.39756,3.38436 22.74756,5.91799 16.72308,4.53155 23.60406,6.31839 34.5,8.95887 3.025,0.73307 8.2,2.09033 11.5,3.01615 3.3,0.92581 9.7125,2.6257 14.25,3.77753 8.8402,2.24405 10.40147,3.98262 5,5.56782 -6.82215,2.00212 -11.38896,3.24662 -15.25,4.15576 -4.09392,0.96397 -27.66769,7.17892 -42,11.07281 -4.4,1.19541 -10.475,2.77185 -13.5,3.50319 -11.48877,2.77759 -24.429,6.50069 -25.09612,7.22054 -0.38178,0.41195 -0.95172,3.67401 -1.26654,7.24901 -2.847,32.33001 -14.11802,68.92895 -31.63927,102.73816 -6.73814,13.00199 -13.77109,24.11785 -29.44742,46.5428 -4.71304,6.742 -43.27681,44.79836 -52.05065,51.36579 -18.75659,14.03976 -29.5008,20.6569 -50,30.79402 -17.92388,8.86359 -22.12298,10.62981 -36.75814,15.46119 -23.58479,7.78583 -44.90425,12.57835 -61.40428,13.80341 -7.68491,0.57057 -6.26062,-2.38786 -14.82558,30.79463 -1.84553,7.15 -4.09145,15.7 -4.99093,19 -3.75513,13.77678 -7.65096,28.69197 -10.25078,39.24512 -1.99492,8.09775 -3.19012,11.24511 -4.27029,11.24511 -1.08017,0 -2.27537,-3.14736 -4.27029,-11.24511 z M 634.10063,500.28591 C 640.65,487.16889 650.2251,457.35979 651.53802,446 c 0.34962,-3.025 1.04927,-6.86487 1.55478,-8.53304 2.63545,-8.69701 4.79959,-51.30746 3.04565,-59.96696 -0.557,-2.75 -1.47033,-9.275 -2.02963,-14.5 -1.19368,-11.15142 -3.38875,-23.47561 -5.43237,-30.5 -0.80007,-2.75 -2.15607,-7.475 -3.01334,-10.5 -1.41512,-4.99342 -3.62359,-11.46734 -8.17506,-23.96443 -1.96808,-5.40381 -14.66897,-30.92786 -17.30636,-34.77935 -1.58177,-2.30991 -8.59073,-12.8127 -15.31432,-22.9482 C 596.29036,227.37857 564.69411,195.7781 551.69909,187.13263 550.34938,186.23468 545.2381,182.8 540.34069,179.5 526.38748,170.09798 518.93995,165.94112 502,158.10004 c -16.11412,-7.45882 -43.82995,-16.34707 -55,-17.63806 -3.025,-0.34962 -6.86487,-1.04927 -8.53304,-1.55478 -13.7186,-4.15714 -71.21532,-4.15714 -84.93392,0 -1.66817,0.50551 -5.50804,1.20516 -8.53304,1.55478 -13.47088,1.55691 -51.81121,14.63257 -65,22.16771 -1.375,0.78558 -5.62491,3.03995 -9.44425,5.00971 -9.23244,4.76149 -29.25783,18.17976 -38.44702,25.76193 -9.51105,7.84774 -30.86204,29.19903 -38.70684,38.7074 C 180.26712,248.02885 160.41626,281.6624 154.5122,298 c -4.94587,13.68612 -6.76995,19.04099 -8.17531,24 -0.85727,3.025 -2.21327,7.75 -3.01334,10.5 -2.04362,7.02439 -4.23869,19.34858 -5.43237,30.5 -0.5593,5.225 -1.47263,11.75 -2.02963,14.5 -1.75394,8.6595 0.4102,51.26995 3.04565,59.96696 0.50551,1.66817 1.20516,5.50804 1.55478,8.53304 1.15757,10.01564 10.54139,40.22769 15.84053,51 l 3.19749,6.5 6.5,0.32634 c 7.4204,0.37256 13.87148,-0.79299 26,-4.69757 7.62541,-2.45487 8.96302,-2.61602 13,-1.56619 2.475,0.64363 6.84735,1.71805 9.71632,2.38761 6.03296,1.40796 31.74739,1.57651 35.34868,0.23169 1.33925,-0.50011 4.56739,-1.22243 7.17364,-1.60515 6.34049,-0.9311 19.83602,-5.58603 27.38506,-9.44576 7.35593,-3.76099 9.48873,-3.85568 16.546,-0.73463 6.15157,2.72052 15.64314,5.57754 27.3303,8.22658 10.17511,2.30632 40.76315,2.60652 50,0.49072 11.37987,-2.60668 23.01594,-5.91115 28.5,-8.09358 3.025,-1.20382 6.21494,-2.40932 7.08876,-2.67888 0.87382,-0.26956 8.97382,1.98605 18,5.01246 16.30227,5.46604 25.45228,7.80968 37.91124,9.71038 3.575,0.54539 8.50002,1.45078 10.94448,2.01198 2.44446,0.56119 12.56946,1.26489 22.5,1.56376 22.55143,0.67873 38.13079,-0.88329 57.27035,-5.74202 l 8.21484,-2.08541 7.78516,2.47188 c 13.82912,4.39089 24.40799,6.99598 35.1676,8.66015 3.51033,0.54294 6.64305,1.24778 6.96159,1.56632 0.31853,0.31854 2.84644,0.44645 5.61757,0.28424 L 629.5,509.5 l 4.60063,-9.21409 z M 358,491.34747 c -7.42362,-3.00047 -10.54591,-5.13868 -15.63724,-10.70865 -4.71629,-5.15967 -6.39047,-7.95144 -8.56133,-14.27637 C 328.8937,452.06346 328.57863,447.96263 328.261,394.25 328.07837,363.36711 327.59748,344 327.01327,344 c -0.52281,0 -11.20933,5.0625 -23.74781,11.25 -22.33847,11.02361 -26.0959,12.77364 -39.26546,18.28799 -9.76276,4.08786 -36.27825,12.89651 -46.68491,15.50909 -7.81571,1.96212 -9.42911,2.10318 -10.82309,0.94628 -2.37199,-1.96858 -5.79886,-9.09272 -4.82302,-10.02663 0.45706,-0.43742 5.56404,-2.35354 11.34885,-4.25804 8.7879,-2.89319 29.59425,-12.68175 41.45115,-19.50111 8.72307,-5.01698 30.24341,-19.5636 37.21386,-25.15462 15.44738,-12.39039 21.59468,-17.55117 28.35305,-23.80296 4.31061,-3.9875 8.14113,-7.25 8.51227,-7.25 0.68329,0 3.67516,2.58482 22.28037,19.24901 5.6807,5.08804 11.0807,9.65993 12,10.15974 0.91931,0.49982 4.33196,3.19982 7.58367,6 3.25171,2.80019 6.90609,5.76625 8.12085,6.59125 3.59611,2.44228 28.87275,19.38863 31.00477,20.78669 1.0792,0.70768 7.69138,4.08268 14.69373,7.5 7.00235,3.41732 12.73985,6.71352 12.75,7.32489 0.0101,0.61136 -1.7467,4.88636 -3.90411,9.5 -4.16562,8.90821 -5.89254,13.81496 -11.04705,31.38842 -1.77454,6.05 -3.85732,12.69661 -4.62841,14.77024 -0.77109,2.07363 -1.41441,4.54863 -1.42961,5.5 -0.0524,3.27901 -10.65512,28.04479 -14.46187,33.7799 -5.26874,7.9377 -11.02101,13.29581 -17.5105,16.31064 -4.46625,2.0749 -7.28557,2.60569 -15,2.82406 -5.225,0.1479 -10.175,-0.004 -11,-0.33737 z M 499.69993,472.3666 c -0.38881,-0.38882 -5.39237,-1.04137 -11.11901,-1.45011 -12.55446,-0.89607 -24.24884,-3.58441 -26.83284,-6.16841 -1.67612,-1.67612 -1.73216,-2.13945 -0.4858,-4.01658 0.77489,-1.16704 2.72037,-2.49724 4.3233,-2.956 1.60293,-0.45876 4.37866,-1.30068 6.16828,-1.87093 9.65425,-3.07626 62.6215,-4.35587 83.74614,-2.02319 16.44217,1.81562 25.5,4.87703 25.5,8.61862 0,3.87497 -9.61202,6.99001 -26.63025,8.63029 -14.05516,1.35468 -53.65591,2.25022 -54.66982,1.23631 z m -32.16338,-20.97291 c -1.42759,-1.42758 -1.57461,-5.70236 -1.32143,-38.42054 l 0.28488,-36.81424 2.42431,-2.57945 c 3.13278,-3.33326 1.19633,-3.31421 -4.98301,0.049 -6.45119,3.51118 -8.1405,2.77665 -7.74651,-3.36827 0.30147,-4.70194 0.375,-4.7951 6.00755,-7.61179 6.56359,-3.28228 16.99772,-5.2284 37.29766,-6.95657 l 14,-1.19184 0.29569,-6.75 0.29569,-6.75 -53.30514,0 c -52.33179,0 -53.3281,0.0367 -54.56192,2.01242 -1.46999,2.35382 -0.20625,2.97264 -17.72432,-8.67914 -12.54314,-8.34281 -18.10413,-12.34514 -28.94654,-20.83328 -4.21528,-3.3 -8.87675,-6.89543 -10.35881,-7.98985 C 347.71259,304.41573 343.575,301.03308 340,297.99314 332.4978,291.61377 326.41222,287 325.5,287 c -0.87172,0 -6.63304,4.35833 -15.2004,11.49881 -13.81075,11.51059 -20.63093,17.01318 -23.20624,18.72302 -1.42635,0.94701 -5.06836,3.53935 -8.09336,5.76076 -3.025,2.22141 -11.52415,8.08802 -18.887,13.03691 -10.48465,7.04719 -13.68251,8.75274 -14.75,7.8668 -1.86903,-1.55116 -1.9702,-28.29231 -0.113,-29.86793 0.6875,-0.58326 6.93257,-4.81815 13.87793,-9.41085 18.43393,-12.18964 35.45793,-25.02933 53.25195,-40.1632 3.91607,-3.33063 8.51307,-6.87407 10.21557,-7.87432 2.99792,-1.76132 3.18698,-1.76004 6,0.0409 1.5975,1.02272 6.1179,4.56616 10.04534,7.87432 18.6639,15.72099 35.98758,28.76411 55.35921,41.68033 l 12.5,8.3345 0.5,9.5 0.5,9.5 55.40783,0.25854 c 38.8944,0.18149 55.80784,0.59052 56.75,1.37245 0.94562,0.78479 1.34217,3.84286 1.34217,10.35045 l 0,9.23654 15.75,1.05912 c 18.02237,1.21193 23.80634,2.10014 34.09068,5.23512 5.95949,1.81664 7.69923,2.82567 9.24626,5.36273 2.44526,4.01009 2.4082,5.86698 -0.16354,8.19437 -1.94677,1.7618 -2.25359,1.77773 -4.90732,0.2547 l -2.83071,-1.62461 1.40732,3.36818 C 574.70852,379.2382 575,386.95661 575,413.83307 c 0,32.77875 -0.0684,33.98421 -2.07258,36.53212 -2.55812,3.25212 -5.88451,3.37389 -8.75311,0.32041 C 562.02355,448.39617 562,447.97411 562,411.7245 c 0,-35.54063 0.0613,-36.70367 2.03022,-38.53802 2.87868,-2.68191 1.03631,-3.8635 -8.08425,-5.18475 -17.01709,-2.46519 -36.50958,-3.29134 -52.08892,-2.20769 -17.35355,1.20706 -29.93471,2.88362 -31.21015,4.15906 -0.48094,0.48094 0.39983,1.66373 1.9962,2.6807 1.57129,1.001 3.18751,2.2804 3.59159,2.8431 0.40408,0.56271 0.74158,16.68295 0.75,35.82276 0.0165,37.49488 -0.26751,39.73972 -5.19464,41.05958 -3.49484,0.93618 -4.50824,0.77971 -6.2535,-0.96555 z M 484.2,448.8 c -1.72214,-1.72214 -1.72214,-75.87786 0,-77.6 1.69902,-1.69902 6.36891,-1.48823 8.22857,0.37143 C 493.8003,372.94315 494,377.82684 494,410 c 0,32.17316 -0.1997,37.05685 -1.57143,38.42857 -1.85966,1.85966 -6.52955,2.07045 -8.22857,0.37143 z m 64.02251,-0.3567 -2.22251,-1.55671 0,-36.87187 c 0,-32.18654 0.19968,-37.07154 1.57143,-38.44329 2.00134,-2.00134 5.36116,-2.00737 8.20606,-0.0147 l 2.22251,1.55671 0,37.24329 c 0,27.63368 -0.30963,37.55293 -1.2,38.4433 -1.67377,1.67377 -5.93137,1.49671 -8.57749,-0.3567 z m -47.59989,-1.52551 -2.64709,-2.0822 0.26223,-36.56023 0.26224,-36.56024 2.74799,-2.05131 c 2.21153,-1.65086 3.28522,-1.86242 5.5,-1.08372 l 2.75201,0.96758 0.26201,37.71415 c 0.25454,36.63752 0.20458,37.77159 -1.75,39.72617 -2.54767,2.54767 -4.07982,2.53311 -7.38939,-0.0702 z m 15.92185,-0.28241 -2.54447,-2.54447 0,-35.82295 c 0,-39.33798 0.1366,-40.28488 5.8067,-40.25265 6.99341,0.0398 7.1933,1.15042 7.1933,39.96861 0,28.62415 -0.24557,34.59029 -1.52568,37.06574 C 524.6352,446.67235 523.547,448 523.05611,448 c -0.4909,0 -1.58433,0.26547 -2.42985,0.58992 -0.9068,0.34797 -2.58092,-0.45367 -4.08179,-1.95454 z m 16.70553,1.33346 -2.25,-0.90439 0,-38.55698 0,-38.55697 2.5651,-0.97525 c 3.55266,-1.35072 4.15542,-1.25473 6.4349,1.02475 1.92694,1.92694 2,3.33333 2,38.5 0,35.16667 -0.0731,36.57306 -2,38.5 -2.17898,2.17898 -3.32876,2.34401 -6.75,0.96884 z M 339.69525,255.62365 c -7.36504,-6.037 -12.20309,-8.11029 -16.64756,-7.13412 -1.61997,0.3558 -6.63243,3.11479 -11.13882,6.13108 -4.50638,3.0163 -8.8044,5.24972 -9.55115,4.96317 C 301.31513,259.1837 301,256.18554 301,246.66624 c 0,-10.96976 0.23516,-12.69548 2.04323,-14.99407 6.49998,-8.26338 20.44619,-12.67488 29.88577,-9.45354 4.06731,1.38801 10.26598,5.39457 14.34956,9.27496 l 2.77856,2.64031 -0.27856,13.1707 c -0.23362,11.04579 -0.5326,13.21941 -1.85316,13.4726 -0.86603,0.16604 -4.5696,-2.15306 -8.23015,-5.15355 z m 385.49113,40.88311 c -5.28219,-2.45907 -5.34795,-2.54624 -11.11944,-14.74023 -3.19321,-6.74659 -6.13074,-13.31317 -6.52785,-14.5924 C 705.95607,262.07471 699.99024,250 699.05376,250 c -0.5482,0 -3.55708,1.13231 -6.6864,2.51624 -3.12931,1.38393 -6.4564,2.27289 -7.39353,1.97545 -0.95982,-0.30463 -3.59653,-4.72992 -6.0381,-10.13395 -4.1718,-9.23363 -4.2634,-9.64498 -2.44386,-10.97545 1.03971,-0.76026 2.42886,-1.38229 3.08699,-1.38229 0.65812,0 4.28462,-1.39111 8.05887,-3.09135 7.99106,-3.59985 8.47405,-3.80715 18.36227,-7.88111 4.125,-1.69951 8.85,-3.70651 10.5,-4.46001 15.79212,-7.2117 19.38787,-8.66293 21.93007,-8.85089 3.3798,-0.24989 3.32765,-0.32987 9.96605,15.28336 2.4554,5.775 6.69332,15.675 9.4176,22 7.46812,17.33884 9.18628,22.59213 9.18628,28.08717 0,5.96375 -1.51694,9.16086 -6.66758,14.05265 -4.49995,4.2738 -8.18672,6.24953 -17.69906,9.48488 -8.74028,2.97276 -10.83849,2.95858 -17.44698,-0.11794 z m 12.9618,-23.92421 c 4.37636,-1.82856 7.25145,-5.02955 6.55646,-7.29967 -2.03466,-6.646 -12.40173,-29.28989 -13.39192,-29.25078 -0.447,0.0176 -3.28772,1.25515 -6.31272,2.75 -4.58363,2.26506 -5.45657,3.11388 -5.23935,5.09455 0.38835,3.54105 10.16196,25.27816 12.53263,27.87335 2.43442,2.66498 1.71435,2.56259 5.8549,0.83255 z M 95,240.6397 c -2.475,-1.21141 -6.134177,-3.31342 -8.131504,-4.67113 -23.259894,-15.81127 -26.869171,-19.9325 -26.867707,-30.67873 0.001,-7.35501 3.260923,-14.46768 12.797146,-27.9215 3.847136,-5.42759 8.503929,-12.08169 10.348429,-14.78689 4.594503,-6.73846 12.757442,-15.48035 16.040349,-17.178 4.550787,-2.35331 11.190157,-1.74679 17.887577,1.63405 3.3095,1.67063 6.23783,3.6123 6.50742,4.31484 0.26959,0.70253 -2.09383,5.20952 -5.25203,10.01554 l -5.74219,8.73822 -3.70936,-0.62669 c -3.29078,-0.55597 -4.16777,-0.21253 -7.7719,3.04359 -2.234408,2.01865 -5.058623,5.31428 -6.276035,7.32364 -1.217412,2.00935 -3.647977,5.45336 -5.401255,7.65336 -4.879525,6.12279 -7.664227,12.19773 -6.538593,14.26422 1.457507,2.67575 7.052039,7.7084 12.960142,11.6585 7.674001,5.13076 12.657121,5.03724 17.283151,-0.32436 C 121.24011,203.7029 130,189.85281 130,186.43127 c 0,-1.20251 -0.67246,-2.74447 -1.49435,-3.42658 -1.77344,-1.47183 -3.05374,-0.16129 -10.06059,10.29823 -2.50651,3.7416 -5.20285,7.05064 -5.99187,7.35341 C 110.91272,201.24747 100,194.50841 100,192.96596 c 0,-0.50992 1.5869,-3.29836 3.52644,-6.19654 10.05709,-15.02791 18.30175,-26.79017 22.10307,-31.53342 l 2.12952,-2.65717 3.74306,2.96058 c 4.11481,3.25464 11.29957,8.38055 16.05573,11.45484 6.09939,3.94254 8.07081,13.0239 4.76985,21.97232 -1.47486,3.99813 -9.12441,16.12303 -19.8943,31.53343 -6.23285,8.91845 -15.66228,18.69934 -19.8698,20.6104 -5.35586,2.43264 -11.99535,2.2547 -17.56357,-0.4707 z M 650.34215,202.58712 C 644.19881,195.65336 640,190.21013 640,189.17983 c 0,-0.52508 2.48492,-2.91784 5.52205,-5.31726 3.03713,-2.39941 8.87434,-7.06257 12.97159,-10.36257 4.09724,-3.3 10.83509,-8.7 14.97299,-12 4.13791,-3.3 9.88819,-7.9578 12.77842,-10.35066 8.76055,-7.25301 9.2247,-7.31093 13.98247,-1.74482 5.38959,6.30529 8.77248,11.35273 8.77248,13.089 0,0.77258 -1.6875,2.65734 -3.75,4.18835 -2.0625,1.53101 -6.51399,5.04141 -9.8922,7.80089 C 691.97959,177.24224 685.51858,182.425 681,186 c -4.51858,3.575 -10.98492,8.75 -14.36965,11.5 -3.38474,2.75 -7.56976,5.99531 -9.30005,7.21181 l -3.14599,2.2118 -3.84216,-4.33649 z M 615.48942,160.76688 C 610.03989,157.80684 600,149.52993 600,147.99736 c 0,-0.9502 0.83463,-2.80083 1.85473,-4.1125 5.26838,-6.77422 11.19657,-16.30879 10.79338,-17.35949 -0.25186,-0.65633 -4.57067,-4.08054 -9.59737,-7.60935 -5.02669,-3.52881 -11.70698,-8.32379 -14.84509,-10.65551 -3.13811,-2.33172 -6.22153,-4.24422 -6.85206,-4.25 -1.38344,-0.0127 -5.29575,4.59821 -11.35359,13.3809 -2.475,3.58827 -5.07335,6.54314 -5.77411,6.56636 C 562.00717,124.03131 546,112.45352 546,110.77522 c 0,-0.54308 1.4625,-2.8311 3.25,-5.0845 1.7875,-2.2534 4.375,-5.762619 5.75,-7.798266 C 560.56535,89.65312 569.24777,77.182433 573.02701,72 c 2.20596,-3.025 5.9078,-8.3125 8.22631,-11.75 2.47626,-3.671381 4.93597,-6.25 5.96179,-6.25 2.1101,0 16.71378,9.651128 17.43072,11.519434 0.63971,1.667055 -0.66243,4.095154 -6.83603,12.747124 -2.7083,3.795538 -4.78079,7.645556 -4.60553,8.555596 0.28857,1.498444 4.50631,4.748457 20.6925,15.944786 9.32561,6.45072 10.60658,7.16053 11.61777,6.4376 1.40252,-1.00271 6.69736,-7.96959 9.7852,-12.875247 3.21413,-5.106283 6.05233,-6.239732 9.03534,-3.608301 1.1907,1.050375 3.51492,2.726104 5.16492,3.723843 4.39465,2.657404 8.5,6.714395 8.5,8.399885 0,0.8088 -1.71413,3.7621 -3.80918,6.56291 -7.13737,9.54173 -9.68714,13.08921 -14.44154,20.09237 -2.61373,3.85 -6.43907,9.35659 -8.50076,12.23687 -2.06169,2.88028 -5.40815,7.63955 -7.43658,10.57615 -4.87827,7.06238 -5.83555,7.80471 -8.32252,6.45386 z M 182.5,144.83681 c -6.62522,-3.4365 -6.06141,-2.75213 -19.67985,-23.88825 C 155.99552,110.35659 155,107.65594 155,99.734118 155,87.553972 154.9145,87.632898 199.26446,58.871224 207.39867,53.596054 214.93407,51 222.11175,51 c 5.94081,0 6.1269,0.08607 11.71249,5.416844 3.12167,2.979264 6.80076,7.258373 8.17576,9.509131 1.375,2.250758 4.83228,7.713385 7.68285,12.139171 2.85056,4.425787 5.4662,9.484178 5.81252,11.240869 0.34633,1.756692 1.0971,4.409659 1.66839,5.895484 2.71964,7.073331 -7.16407,18.908301 -25.22319,30.202811 -21.20346,13.26105 -29.14703,17.77444 -34.56172,19.63737 -7.11591,2.44823 -9.83615,2.41078 -14.87885,-0.20487 z m 19.90805,-24.23394 c 1.8391,-0.76843 8.72917,-5.0051 15.31128,-9.41483 16.17253,-10.83491 16.85063,-12.601996 9.42855,-24.570381 -8.22843,-13.268656 -11.95139,-14.423165 -23.67232,-7.340906 -8.93094,5.396439 -16.18713,10.371312 -19.52292,13.385002 -5.70087,5.150389 -5.5432,9.342285 0.69813,18.560935 7.27447,10.74464 10.4619,12.42838 17.75728,9.38018 z M 498.92823,94.604711 c -0.31447,-0.319868 -3.68947,-1.231435 -7.5,-2.025705 C 452.90665,84.549532 438.66764,79.782727 434.93926,73.668146 432.6252,69.873061 432.40035,62.300057 434.42953,56.5 c 1.5894,-4.543025 1.29153,-4.512059 13.46247,-1.399559 8.40291,2.148892 10.108,3.222929 10.108,6.367016 0,3.104045 2.66084,5.073968 8.5,6.292874 2.75,0.574054 9.5,2.207499 15,3.629877 12.96779,3.353654 15.2727,3.363604 16.09947,0.0695 0.43107,-1.717511 0.0742,-3.162836 -1.10187,-4.462355 -1.99109,-2.200133 -2.42488,-2.341752 -27.9976,-9.14048 -13.58604,-3.611966 -21.09152,-6.56882 -24.27807,-9.564571 l -3.41199,-3.207701 0.34503,-9.792299 C 441.56263,23.72253 444.2492,17.003151 450,13.169986 c 3.16376,-2.108786 4.31659,-2.286839 12,-1.853386 8.51855,0.480567 12.46498,1.23179 32,6.091362 20.56321,5.115347 23.15649,6.01139 27.16877,9.387505 4.01245,3.376251 5.83123,7.308675 5.83123,12.60782 0,8.077649 -3.83918,12.358703 -8.73389,9.739133 -1.05609,-0.565204 -4.3605,-1.338344 -7.34314,-1.71809 C 504.57708,46.616378 503,45.616399 503,42.400608 503,41.007581 502.00287,39.392759 500.55817,38.446159 498.18085,36.88848 472.41898,30 468.97081,30 c -2.53218,0 -4.28275,2.620998 -3.59111,5.376713 0.68126,2.714334 1.84644,3.338465 9.6203,5.153099 3.025,0.706119 7.975,2.006397 11,2.889506 3.025,0.883109 8.2,2.222547 11.5,2.976528 3.3,0.753981 8.39346,2.291893 11.31879,3.417581 11.78835,4.536229 13.64843,7.498214 12.95579,20.630764 -0.64644,12.256523 -3.79903,18.79439 -10.48993,21.754092 -4.80392,2.125003 -11.37496,3.404721 -12.35642,2.406428 z M 292.18152,75.339176 c -0.55512,-1.037258 -1.75269,-4.754705 -2.66126,-8.260992 -1.944,-7.502146 -1.48042,-8.336792 5.47974,-9.865871 2.475,-0.543733 8.75911,-2.157335 13.96468,-3.585781 6.24023,-1.712364 9.80164,-2.260208 10.45377,-1.60808 1.35908,1.359076 3.74423,9.755467 3.92938,13.832479 0.17214,3.79066 -0.48986,4.160498 -14.34783,8.015704 -12.17076,3.385833 -15.63231,3.688909 -16.81848,1.472541 z"
       id="path3412"
       inkscape:connector-curvature="0" />
    <path
       style="fill:#0455a4"
       d="m 395,791 c 0,-0.55 0.45,-1 1,-1 0.55,0 1,0.45 1,1 0,0.55 -0.45,1 -1,1 -0.55,0 -1,-0.45 -1,-1 z m -0.3954,-4.75 c -0.65171,-2.15117 -4.80824,-17.99872 -8.58976,-32.75 -1.55092,-6.05 -4.92749,-18.875 -7.50348,-28.5 -2.57599,-9.625 -5.32284,-20.12264 -6.1041,-23.32809 -0.78127,-3.20545 -1.85031,-6.63124 -2.37565,-7.61285 -1.33623,-2.49677 -5.3443,-3.7998 -13.79962,-4.48628 -3.99741,-0.32455 -9.17241,-1.00835 -11.5,-1.51955 -2.3276,-0.51121 -7.83199,-1.691 -12.23199,-2.62176 -44.39768,-9.39176 -89.69176,-31.2389 -125.6743,-60.61773 -11.48547,-9.3776 -42.78385,-42.23248 -48.69307,-51.11465 -0.89795,-1.34971 -4.53279,-6.67165 -8.07742,-11.82655 -9.64655,-14.0288 -20.20534,-33.47872 -27.94233,-51.47145 -3.12475,-7.26677 -13.83931,-39.90068 -14.57802,-44.40109 -0.22569,-1.375 -1.16445,-6.325 -2.08611,-11 -0.92167,-4.675 -2.4201,-13.62537 -3.32985,-19.88971 -1.92386,-13.24733 -1.75809,-13.05119 -13.670328,-16.1748 C 84.076857,417.78914 74.65,415.30755 67.5,413.42084 38.168825,405.68107 23.004817,401.71199 14.065689,399.43476 8.8768184,398.1129 4.21902,396.61902 3.7150262,396.11503 2.6720627,395.07206 2.6265522,395.08865 16.5,391.45604 c 5.5,-1.44011 15.85,-4.159 23,-6.04198 7.15,-1.88298 19.75,-5.19191 28,-7.35318 27.681366,-7.25175 29.785422,-7.90186 31.668497,-9.78493 1.354473,-1.35448 2.151063,-4.36362 2.865893,-10.82592 1.08432,-9.80278 1.92966,-14.46321 5.60986,-30.9278 2.59898,-11.62737 11.401,-39.63933 14.30417,-45.52223 0.94997,-1.925 4.72248,-9.575 8.38335,-17 8.48859,-17.21662 10.84179,-21.38054 18.64964,-33 10.97641,-16.33484 18.05457,-25.04398 32.00845,-39.38396 28.73453,-29.5296 46.56426,-42.82389 80.76872,-60.22315 16.55926,-8.42343 23.93509,-11.50819 40.39234,-16.89311 23.83032,-7.79745 41.26549,-11.67915 59.13274,-13.16511 9.04386,-0.75214 7.7523,1.87908 17.34439,-35.33467 1.91384,-7.425 5.29419,-20.25 7.51187,-28.5 2.21769,-8.25 5.09152,-19.210579 6.3863,-24.356842 3.38364,-13.44876394 3.56392,-13.44876394 6.94756,0 1.29478,5.146263 4.16861,16.106842 6.3863,24.356842 2.21768,8.25 5.59803,21.075 7.51187,28.5 9.59209,37.21375 8.30053,34.58253 17.34439,35.33467 29.4858,2.45223 65.98165,13.32644 97.78366,29.13536 33.88968,16.84673 53.66129,31.49892 82.51014,61.14601 13.95388,14.33998 21.03204,23.04912 32.00845,39.38396 7.80785,11.61946 10.16105,15.78338 18.64964,33 3.66087,7.425 7.43338,15.075 8.38335,17 4.43613,8.98926 14.39361,42.84524 17.05855,58 2.5305,14.39028 3.91867,23.30475 3.79198,24.35121 -0.583,4.81562 1.39271,6.29735 12.09789,9.07314 6.7375,1.747 26.99316,7.06246 49.5,12.98971 7.15,1.88298 17.5,4.60187 23,6.04198 13.87345,3.63261 13.82794,3.61602 12.78497,4.65899 -0.50399,0.50399 -5.16179,1.99787 -10.35066,3.31973 -8.93913,2.27723 -24.10313,6.24631 -53.43431,13.98608 -7.15,1.88671 -16.57686,4.3683 -20.94857,5.51465 -11.91224,3.12361 -11.74647,2.92747 -13.67033,16.1748 -0.90975,6.26434 -2.40818,15.21471 -3.32985,19.88971 -0.92166,4.675 -1.86042,9.625 -2.08611,11 -0.71648,4.36498 -11.17795,36.1988 -14.45961,44 -7.33879,17.44587 -18.22172,37.56384 -28.06074,51.87254 -3.54463,5.1549 -7.17947,10.47684 -8.07742,11.82655 -5.90922,8.88217 -37.2076,41.73705 -48.69307,51.11465 -35.98254,29.37883 -81.27662,51.22597 -125.6743,60.61773 -4.4,0.93076 -10.025,2.14357 -12.5,2.69514 -2.475,0.55156 -8.30642,1.27218 -12.95872,1.60138 -10.35873,0.73298 -12.13529,2.14087 -14.33137,11.35737 -0.84065,3.52805 -3.63815,14.28964 -6.21667,23.91464 -2.57852,9.625 -5.95716,22.45 -7.50808,28.5 -3.78152,14.75128 -7.93805,30.59883 -8.58976,32.75 -0.2916,0.9625 -0.91953,1.75 -1.3954,1.75 -0.47587,0 -1.1038,-0.7875 -1.3954,-1.75 z M 424.5,655.09986 c 6.05,-0.6074 12.125,-1.51806 13.5,-2.02368 1.375,-0.50562 4.97059,-1.20944 7.9902,-1.56405 8.57452,-1.00695 35.09069,-8.80758 47.5098,-13.97662 4.91521,-2.04579 16.28529,-7.31654 19,-8.80771 1.1,-0.60421 4.925,-2.63103 8.5,-4.50404 8.70037,-4.55828 24.62188,-15.04994 34.27961,-22.58894 4.32241,-3.37415 9.51525,-7.40213 11.53966,-8.95106 4.10723,-3.14258 22.55461,-21.98987 28.57344,-29.19288 10.95857,-13.11462 23.34287,-31.56214 31.5462,-46.99088 1.75458,-3.3 4.49807,-8.25 6.09664,-11 5.49068,-9.44557 14.70789,-35.69993 18.60688,-53 2.1251,-9.4292 4.40118,-24.05264 5.52543,-35.5 1.18259,-12.04135 0.47849,-47.30665 -1.07815,-54 -0.5756,-2.475 -1.78779,-9 -2.69377,-14.5 -5.17821,-31.43585 -20.37985,-68.76036 -39.7101,-97.5 -18.02093,-26.79299 -45.43664,-54.55895 -70.38895,-71.28821 -28.2545,-18.94322 -62.29872,-33.82401 -90.88415,-39.72566 -20.48492,-4.22924 -35.84746,-5.81198 -56.41274,-5.81198 -34.17822,0 -62.38214,5.23094 -94.5,17.52676 -19.41706,7.43352 -49.4709,24.3499 -64.27802,36.1801 -14.73328,11.77122 -37.68866,34.33824 -46.30746,45.52404 -4.94151,6.41327 -19.32345,27.46759 -21.7361,31.82037 -15.40689,27.79634 -26.34178,57.57941 -30.57436,83.27458 -0.90598,5.5 -2.11817,12.025 -2.69377,14.5 -1.55664,6.69335 -2.26074,41.95865 -1.07815,54 1.12425,11.44736 3.40033,26.0708 5.52543,35.5 3.5101,15.57452 13.34976,44.352 17.14593,50.14569 0.84592,1.29103 3.60944,6.2864 6.14116,11.10082 9.38833,17.85323 21.16514,35.62578 32.96263,49.74437 5.91497,7.07872 24.72069,26.33677 28.13923,28.81607 1.66312,1.20618 6.15958,4.74711 9.99214,7.86873 11.69789,9.52795 34.13068,23.78462 46.26134,29.40038 3.025,1.4004 6.21931,2.9299 7.09847,3.3989 11.18539,5.967 44.68245,16.67966 59.40153,18.99714 3.85,0.60617 9.25,1.50258 12,1.99201 2.75,0.48944 7.7,0.92963 11,0.9782 3.3,0.0486 6.675,0.53565 7.5,1.0824 1.83463,1.21585 30.94464,0.63687 46.5,-0.92485 z M 354.61321,488.5323 c -12.29359,-5.05424 -19.41915,-16.0211 -23.41147,-36.0323 -1.30425,-6.53743 -1.64568,-16.95825 -1.86757,-57 -0.14935,-26.95 -0.28563,-49.7875 -0.30286,-50.75 -0.0187,-1.04523 -0.8009,-1.75 -1.94228,-1.75 -1.05103,0 -13.15729,5.55705 -26.90281,12.34901 -31.73424,15.68056 -57.90024,25.93364 -82.18622,32.20444 -11.23566,2.90113 -10.52766,2.94688 -12.86262,-0.83117 C 203.96182,384.82019 203,382.62524 203,381.84462 c 0,-0.9158 3.63633,-2.60648 10.25,-4.76565 15.24098,-4.97574 38.19597,-16.92097 57.57319,-29.95971 6.22775,-4.19059 13.03634,-8.76553 15.13019,-10.16653 2.09385,-1.40099 6.44842,-4.79563 9.67681,-7.54363 3.2284,-2.748 6.99481,-5.72105 8.36981,-6.60677 1.375,-0.88572 7.14285,-5.95591 12.81745,-11.26708 6.70122,-6.27204 10.96195,-9.54777 12.15626,-9.34596 1.01135,0.17089 7.02725,5.03571 13.36868,10.81071 10.6223,9.67348 18.32421,16.16423 34.15761,28.78614 5.25314,4.18764 22.1514,15.6404 32.5,22.0268 5.61156,3.46305 23.20554,12.18706 24.57801,12.18706 2.37707,0 2.07917,2.5149 -1.12508,9.49833 -5.47861,11.94021 -6.22794,13.82096 -7.96905,20.00167 -0.92962,3.3 -3.49277,11.85 -5.69591,19 -2.20313,7.15 -4.33534,14.35 -4.73824,16 -1.17658,4.81844 -7.9592,21.49478 -11.31448,27.81879 -3.41077,6.42859 -11.99979,15.73241 -16.82925,18.22982 -9.80105,5.06832 -21.92117,5.83663 -31.29279,1.98369 z M 490,469.99757 c -10.59051,-1.02917 -23.03042,-3.4083 -25.92709,-4.95855 -2.79003,-1.49318 -2.30913,-4.15921 1.03977,-5.7643 11.7779,-5.64499 72.42757,-7.08031 101.09253,-2.39242 15.74682,2.57524 18.22951,7.53799 5.04516,10.08497 -3.1627,0.61097 -7.77537,1.58837 -10.25037,2.17199 -5.61477,1.32398 -59.50424,1.97545 -71,0.85831 z m -20.75,-18.66985 c -0.96879,-0.38317 -1.25,-8.87706 -1.25,-37.75607 0,-36.01686 0.067,-37.32226 2.00406,-39.07533 1.65591,-1.49857 2.43767,-1.61608 4.5,-0.67642 l 2.49594,1.13722 0.15844,34.77144 c 0.17894,39.26845 0.2119,38.35518 -1.44026,39.91022 -1.55682,1.4653 -4.85569,2.32669 -6.46818,1.68894 z m 96.41948,-0.58014 c -1.56004,-1.14072 -1.71628,-4.41811 -1.75196,-36.75 -0.0215,-19.52367 -0.0118,-36.47976 0.0217,-37.68019 0.0925,-3.31801 3.71356,-3.99225 6.6459,-1.23747 l 2.41492,2.26871 0,36.2905 c 0,34.8559 -0.0765,36.33142 -1.93426,37.32569 -2.49863,1.33722 -3.31537,1.30435 -5.39626,-0.21724 z M 485.2,447.8 c -0.88971,-0.88971 -1.2,-10.6839 -1.2,-37.87756 0,-31.23996 0.22046,-36.86051 1.48701,-37.91166 2.14102,-1.77689 6.37256,-0.42168 7.03934,2.25445 0.30624,1.22912 0.42559,18.11403 0.26523,37.52202 -0.24839,30.06044 -0.51376,35.42759 -1.79158,36.23469 -2.05854,1.30022 -4.36614,1.21192 -5.8,-0.22194 z m 64.02251,-0.3567 -2.22251,-1.55671 0,-35.87187 c 0,-31.27745 0.20127,-36.07313 1.57143,-37.44329 1.97723,-1.97723 3.39937,-1.98061 6.20606,-0.0147 l 2.22251,1.55671 0,36.24329 c 0,26.8559 -0.31081,36.55411 -1.2,37.4433 -1.63127,1.63127 -3.91617,1.50736 -6.57749,-0.3567 z m -48.65108,-2.01473 C 499.20232,444.05946 499,439.32041 499,408.6197 c 0,-39.11398 -0.014,-39.02465 6.04414,-38.44841 L 508.5,370.5 l 0.26252,36.29235 c 0.17275,23.88245 -0.0957,36.96175 -0.78518,38.25 -1.2647,2.3631 -5.22262,2.56951 -7.40591,0.38622 z M 517.2,445.8 c -0.88971,-0.88971 -1.2,-10.6839 -1.2,-37.87756 0,-40.39704 -0.005,-40.36497 5.80975,-38.32065 l 2.69025,0.94584 0.26252,36.26854 c 0.17274,23.86585 -0.0958,36.93798 -0.78518,38.22618 -1.1677,2.18185 -4.93229,2.6027 -6.77734,0.75765 z m 15.28055,0.01 c -0.27813,-0.7248 -0.38754,-17.96604 -0.24312,-38.31387 L 532.5,370.5 l 3.18356,-0.3084 c 2.27173,-0.22007 3.45196,0.20955 4.12067,1.5 1.17666,2.27067 1.54393,67.72829 0.40291,71.8084 -0.67742,2.42231 -1.45344,3.06044 -4.02993,3.31387 -1.96315,0.1931 -3.38554,-0.1932 -3.69666,-1.00396 z M 457.6875,374.35417 C 457.30937,373.97604 457,372.16005 457,370.31863 c 0,-2.70019 0.62887,-3.73517 3.25,-5.34876 6.77461,-4.17053 22.07794,-6.96158 47.40314,-8.64548 5.5956,-0.37206 7.2465,-0.84021 7.58189,-2.15001 0.81034,-3.16467 -0.2848,-13.58712 -1.50942,-14.36513 -0.67409,-0.42824 -24.72058,-0.78552 -53.43665,-0.79394 -51.89902,-0.0152 -52.22284,-0.003 -54.18384,2.10223 l -1.9728,2.11755 -12.81616,-8.34671 C 384.26727,330.29769 376.25,324.8497 373.5,322.78174 359.85062,312.51759 348.33144,303.42171 333.85878,291.47987 330.20612,288.46594 326.44466,286 325.5,286 c -0.94466,0 -4.70612,2.46594 -8.35878,5.47987 -27.43175,22.63478 -34.32885,27.86873 -55.35444,42.00631 -14.84372,9.98091 -15.42289,10.26176 -16.1595,7.83614 -0.61346,-2.02011 -0.19701,-26.15885 0.45923,-26.61794 0.22742,-0.1591 6.48849,-4.29213 13.91349,-9.18451 7.425,-4.89237 15.84575,-10.72327 18.71278,-12.95755 2.86703,-2.23428 7.94495,-6.08732 11.28427,-8.56232 5.71819,-4.23814 17.69584,-13.87015 26.38461,-21.21758 7.61614,-6.44038 8.73355,-6.93199 11.59334,-5.10056 1.38875,0.88936 4.325,3.15019 6.525,5.02406 5.515,4.69744 18.12478,14.79075 25.97847,20.79408 3.59762,2.75 8.89921,6.82191 11.78133,9.04869 3.87853,2.99665 30.96955,21.31535 32.44272,21.93749 0.11139,0.047 0.2666,3.44439 0.34491,7.54967 0.0783,4.10528 0.36044,8.70165 0.62694,10.21415 l 0.48454,2.75 56.40149,0 56.4015,0 0.64176,2.55701 c 0.35298,1.40635 0.34034,5.22131 -0.0281,8.47768 -0.98285,8.68722 -0.12797,9.70288 8.66718,10.29719 20.50865,1.38582 31.92399,2.90281 39.75723,5.28337 9.32261,2.83318 10.78603,3.69176 12.07612,7.08497 1.78221,4.68757 -1.46766,7.35284 -5.29484,4.34238 -9.36207,-7.36421 -47.72315,-11.27528 -80.28128,-8.18502 -14.35166,1.36219 -23.24034,3.43504 -29.99818,6.99561 -2.751,1.44944 -5.25495,2.7598 -5.56432,2.91191 -0.30938,0.15211 -0.87188,-0.0328 -1.25,-0.41093 z M 344.40499,257.87029 c -1.98232,-2.21616 -7.34622,-6.07405 -12.75643,-9.17484 -4.64601,-2.66279 -10.35826,-1.73215 -17.3521,2.82701 -3.18805,2.07824 -6.80719,4.68764 -8.04252,5.79869 -1.23533,1.11104 -2.4545,1.81162 -2.70928,1.55685 -0.25477,-0.25478 -0.56,-6.25135 -0.67828,-13.32573 l -0.21507,-12.86251 2.92435,-2.35914 C 311.89847,225.22985 317.97099,223 325.53906,223 c 7.90015,0 12.30754,1.80448 18.90701,7.74096 l 3.60292,3.24095 0.068,11.25905 c 0.0863,14.2797 0.055,14.75904 -0.96203,14.75904 -0.46476,0 -1.70226,-0.95837 -2.75,-2.12971 z M 0,396 c 0,-0.55 0.45,-1 1,-1 0.55,0 1,0.45 1,1 0,0.55 -0.45,1 -1,1 -0.55,0 -1,-0.45 -1,-1 z m 790,0 c 0,-0.55 0.45,-1 1,-1 0.55,0 1,0.45 1,1 0,0.55 -0.45,1 -1,1 -0.55,0 -1,-0.45 -1,-1 z M 724.55798,294.73355 c -4.39721,-2.49146 -6.72264,-6.56826 -15.53422,-27.23355 -2.8142,-6.6 -5.76353,-13.4625 -6.55407,-15.25 -1.71711,-3.88262 -3.0576,-3.9889 -10.69497,-0.84795 -7.11317,2.92537 -7.70895,2.54955 -11.73422,-7.40205 -3.27906,-8.10674 -3.64596,-10 -1.93791,-10 0.60643,0 6.34393,-2.27781 12.75,-5.0618 6.40608,-2.78399 15.92241,-6.90195 21.14741,-9.15101 5.225,-2.24906 13.48106,-5.87412 18.3468,-8.05568 7.43796,-3.33483 9.05357,-3.74872 10.14527,-2.599 1.16803,1.23012 2.67359,4.55085 9.68763,21.36749 1.147,2.75 2.89826,6.8 3.8917,9 9.2374,20.45656 10.97501,25.72009 11.13532,33.73102 0.12282,6.13739 -0.14826,7.13214 -2.86779,10.52354 -3.41514,4.25886 -10.10893,8.25619 -18.7831,11.21669 -7.81948,2.66879 -14.00473,2.5914 -18.99785,-0.2377 z m 14.12692,-20.80016 c 3.93343,-1.49034 7.3151,-4.89576 7.3151,-7.36648 0,-1.14645 -2.81748,-8.60551 -6.26107,-16.57568 -4.83907,-11.20001 -6.71279,-14.54521 -8.25,-14.72892 -1.09391,-0.13073 -4.46393,0.99427 -7.48893,2.5 -4.91309,2.44555 -5.48682,3.05782 -5.37652,5.73769 0.0679,1.65 1.04556,5.025 2.17255,7.5 1.12699,2.475 3.48468,7.875 5.23931,12 3.27359,7.69595 6.34879,12 8.57387,12 0.69333,0 2.52739,-0.47998 4.07569,-1.06661 z M 647.75,198.03177 c -3.1625,-3.75896 -5.75,-7.47014 -5.75,-8.24707 0,-0.77692 3.86595,-4.53381 8.59101,-8.34865 4.72506,-3.81483 11.66307,-9.41105 15.41781,-12.43605 3.75473,-3.025 9.88515,-7.975 13.62315,-11 6.52119,-5.27732 12.5656,-9.82539 15.03211,-11.31079 C 695.77515,146.02009 708,160.0366 708,161.97964 c 0,0.47354 -2.70235,3.03435 -6.00521,5.69067 -15.21934,12.24014 -21.47631,17.25902 -28.46142,22.82969 -4.13791,3.3 -9.8613,7.9125 -12.71865,10.25 -2.85735,2.3375 -5.67208,4.2199 -6.25495,4.18312 -0.58287,-0.0368 -3.64727,-3.14239 -6.80977,-6.90135 z M 612,157.07978 c -7.94161,-5.08654 -11.62421,-8.74117 -10.5,-10.42027 0.55,-0.82147 3.8125,-5.62511 7.25,-10.67475 3.4375,-5.04965 6.25,-9.4815 6.25,-9.84857 0,-0.36706 -2.8125,-2.55146 -6.25,-4.85422 -3.4375,-2.30276 -8.725,-6.01083 -11.75,-8.24016 -9.08538,-6.69563 -14.40755,-10.00273 -16.12985,-10.02281 -1.43201,-0.0167 -5.88904,5.19409 -11.10327,12.981 -0.92072,1.375 -2.52617,3.56793 -3.56766,4.87317 -1.87504,2.34986 -1.92214,2.35515 -4.79643,0.5381 C 555.54401,117.70751 548,111.49451 548,110.37318 c 0,-0.63424 1.91756,-3.79017 4.26124,-7.01317 2.34368,-3.22301 4.93118,-6.813246 5.75,-7.978313 1.66472,-2.368674 10.88334,-15.403422 15.48876,-21.900465 1.65,-2.327721 5.20352,-7.438248 7.89672,-11.356726 C 584.08991,58.206028 586.71996,55 587.24126,55 c 1.15759,0 14.30184,8.744544 15.7289,10.464042 0.73626,0.887144 -0.12965,3.034658 -3.07863,7.635138 -2.25665,3.520451 -4.98984,7.366453 -6.07374,8.546672 -3.82209,4.161716 -2.23787,7.16451 7.18221,13.613518 4.675,3.200515 10.91006,7.48896 13.85569,9.52987 10.60551,7.34816 9.8942,7.17651 13.30536,3.21076 1.65579,-1.925 4.75039,-6.03109 6.87688,-9.124643 2.12648,-3.093553 4.55069,-5.887254 5.38712,-6.208224 0.83796,-0.321552 2.76771,0.453556 4.29787,1.726292 1.52739,1.27043 4.71108,3.520846 7.07485,5.000925 2.36377,1.48008 4.53335,3.30496 4.82128,4.0553 0.55478,1.44574 -1.41875,4.73 -9.64477,16.05035 -2.79763,3.85 -6.62328,9.25 -8.50144,12 -1.87816,2.75 -5.2246,7.475 -7.43654,10.5 -2.21193,3.025 -5.92042,8.3125 -8.24109,11.75 -2.32067,3.4375 -4.68645,6.24145 -5.2573,6.231 C 616.96706,159.9706 614.475,158.665 612,157.07978 Z M 495.5,92.334733 c -3.76356,-0.815309 -23.99108,-5.584884 -35.69714,-8.417253 -13.04917,-3.157348 -20.94598,-6.680077 -23.41226,-10.444108 -1.2978,-1.98068 -1.54776,-4.19747 -1.18328,-10.493642 0.25415,-4.390363 0.72816,-8.248539 1.05334,-8.573725 0.32519,-0.325187 4.74703,0.462931 9.82633,1.751373 8.71342,2.210297 9.29658,2.524382 10.32404,5.560415 0.59893,1.769786 1.76397,3.831058 2.58897,4.580605 0.825,0.749546 9.10994,3.243329 18.41098,5.541739 15.63162,3.862783 17.08793,4.062985 19.25,2.646343 4.39657,-2.880744 2.10031,-9.509863 -3.91408,-11.299646 C 490.9611,62.655411 485,61.001292 479.5,59.511014 455.15244,52.913807 448.75947,50.638844 445.23983,47.319402 l -3.44157,-3.245824 0.39097,-8.786789 c 0.43597,-9.798054 3.49516,-18.507711 7.20108,-20.501783 6.95872,-3.744332 17.0307,-2.8097 44.77947,4.155323 28.42311,7.134285 30.95522,8.820509 30.95522,20.614239 0,9.575069 0.08,9.530997 -12.28899,6.76773 -7.01027,-1.566112 -7.71106,-1.947544 -8.21592,-4.471845 -0.81,-4.050023 -4.23762,-5.77127 -18.91727,-9.499695 -15.38007,-3.906324 -19.19518,-4.167801 -20.66764,-1.416499 -3.16348,5.911018 -0.31168,8.357323 14.08256,12.080171 31.4528,8.134784 34.83566,9.283721 38.45377,13.060205 2.54219,2.653482 2.93862,3.897702 3.25728,10.223269 0.36291,7.203644 -2.22855,18.036444 -5.16974,21.610574 -3.13224,3.806291 -13.00966,5.975043 -20.15905,4.426255 z M 395,1 c 0,-0.55 0.45,-1 1,-1 0.55,0 1,0.45 1,1 0,0.55 -0.45,1 -1,1 -0.55,0 -1,-0.45 -1,-1 z"
       id="path3410"
       inkscape:connector-curvature="0" />
  </g>
</svg>
