<svg id="svg4650" xmlns:rdf="http://www.w3.org/1999/02/22-rdf-syntax-ns#" xmlns="http://www.w3.org/2000/svg" xml:space="preserve" height="629" viewBox="0 0 626.685 629.00214" width="626.68" version="1.1" xmlns:cc="http://creativecommons.org/ns#" xmlns:dc="http://purl.org/dc/elements/1.1/"><defs id="defs4654"><clipPath id="clipPath4668" clipPathUnits="userSpaceOnUse"><path id="path4670" d="m0 792h612v-792h-612v792z"/></clipPath><clipPath id="clipPath4692" clipPathUnits="userSpaceOnUse"><path id="path4694" d="m0 792h612v-792h-612v792z"/></clipPath><clipPath id="clipPath4716" clipPathUnits="userSpaceOnUse"><path id="path4718" d="m0 792h612v-792h-612v792z"/></clipPath><clipPath id="clipPath4740" clipPathUnits="userSpaceOnUse"><path id="path4742" d="m0 792h612v-792h-612v792z"/></clipPath><clipPath id="clipPath4764" clipPathUnits="userSpaceOnUse"><path id="path4766" d="m0 792h612v-792h-612v792z"/></clipPath><clipPath id="clipPath4788" clipPathUnits="userSpaceOnUse"><path id="path4790" d="m0 792h612v-792h-612v792z"/></clipPath><clipPath id="clipPath4828" clipPathUnits="userSpaceOnUse"><path id="path4830" d="m0 792h612v-792h-612v792z"/></clipPath><clipPath id="clipPath4852" clipPathUnits="userSpaceOnUse"><path id="path4854" d="m0 792h612v-792h-612v792z"/></clipPath><clipPath id="clipPath4868" clipPathUnits="userSpaceOnUse"><path id="path4870" d="m0 792h612v-792h-612v792z"/></clipPath><clipPath id="clipPath4884" clipPathUnits="userSpaceOnUse"><path id="path4886" d="m0 792h612v-792h-612v792z"/></clipPath><clipPath id="clipPath4900" clipPathUnits="userSpaceOnUse"><path id="path4902" d="m0 792h612v-792h-612v792z"/></clipPath><clipPath id="clipPath4924" clipPathUnits="userSpaceOnUse"><path id="path4926" d="m0 792h612v-792h-612v792z"/></clipPath><clipPath id="clipPath4940" clipPathUnits="userSpaceOnUse"><path id="path4942" d="m0 792h612v-792h-612v792z"/></clipPath><clipPath id="clipPath4996" clipPathUnits="userSpaceOnUse"><path id="path4998" d="m0 792h612v-792h-612v792z"/></clipPath><clipPath id="clipPath5036" clipPathUnits="userSpaceOnUse"><path id="path5038" d="m0 792h612v-792h-612v792z"/></clipPath><clipPath id="clipPath5052" clipPathUnits="userSpaceOnUse"><path id="path5054" d="m0 792h612v-792h-612v792z"/></clipPath><clipPath id="clipPath5100" clipPathUnits="userSpaceOnUse"><path id="path5102" d="m0 792h612v-792h-612v792z"/></clipPath><clipPath id="clipPath5132" clipPathUnits="userSpaceOnUse"><path id="path5134" d="m0 792h612v-792h-612v792z"/></clipPath><clipPath id="clipPath5164" clipPathUnits="userSpaceOnUse"><path id="path5166" d="m0 792h612v-792h-612v792z"/></clipPath><clipPath id="clipPath5180" clipPathUnits="userSpaceOnUse"><path id="path5182" d="m0 792h612v-792h-612v792z"/></clipPath><clipPath id="clipPath5196" clipPathUnits="userSpaceOnUse"><path id="path5198" d="m0 792h612v-792h-612v792z"/></clipPath><clipPath id="clipPath5212" clipPathUnits="userSpaceOnUse"><path id="path5214" d="m0 792h612v-792h-612v792z"/></clipPath><clipPath id="clipPath5244" clipPathUnits="userSpaceOnUse"><path id="path5246" d="m0 792h612v-792h-612v792z"/></clipPath><clipPath id="clipPath5268" clipPathUnits="userSpaceOnUse"><path id="path5270" d="m0 792h612v-792h-612v792z"/></clipPath><clipPath id="clipPath5292" clipPathUnits="userSpaceOnUse"><path id="path5294" d="m0 792h612v-792h-612v792z"/></clipPath><clipPath id="clipPath5308" clipPathUnits="userSpaceOnUse"><path id="path5310" d="m0 792h612v-792h-612v792z"/></clipPath><clipPath id="clipPath5348" clipPathUnits="userSpaceOnUse"><path id="path5350" d="m0 792h612v-792h-612v792z"/></clipPath><clipPath id="clipPath5372" clipPathUnits="userSpaceOnUse"><path id="path5374" d="m0 792h612v-792h-612v792z"/></clipPath><clipPath id="clipPath5412" clipPathUnits="userSpaceOnUse"><path id="path5414" d="m0 792h612v-792h-612v792z"/></clipPath><clipPath id="clipPath5432" clipPathUnits="userSpaceOnUse"><path id="path5434" d="m0 792h612v-792h-612v792z"/></clipPath></defs><g id="g4658" transform="matrix(1.3333 0 0 -1.3333 -95.565 840.69)"><text id="text4660" transform="matrix(.47011 -.88261 -.88261 -.47011 94.203 292.99)" font-size="29.298px" font-family="Helvetica" fill="#231f20"><tspan id="tspan4662" y="0" x="0">U</tspan></text>
<g id="g4664"><g id="g4666" clip-path="url(#clipPath4668)"><g id="g4672" transform="translate(113.89 300.73)"><path id="path4674" d="m0 0-10.417-5.548c-2.281-1.215-3.872-2.458-4.772-3.73-1.641-2.316-1.625-5.045 0.049-8.187 1.673-3.142 3.931-4.683 6.773-4.622 1.558 0.038 3.477 0.664 5.758 1.879l10.417 5.549-1.352 2.538-11.465-6.107c-1.338-0.713-2.514-1.072-3.526-1.078-1.868-0.003-3.373 1.068-4.517 3.215-0.953 1.79-0.958 3.422-0.013 4.894 0.621 0.984 1.605 1.835 2.952 2.553l11.465 6.106-1.352 2.538z" stroke="#2a3e7a" stroke-width=".01" fill="none"/></g></g></g><text id="text4676" transform="matrix(.52703 -.84985 -.84985 -.52703 104.77 273.67)" font-size="29.297px" font-family="Helvetica" fill="#231f20"><tspan id="tspan4678" y="0" x="0">.</tspan></text>
<g id="g4680" transform="translate(106.09 271.54)"><path id="path4682" d="m0 0 1.576-2.541 2.65 1.644-1.576 2.541-2.65-1.644z" stroke="#2a3e7a" stroke-width=".01" fill="none"/></g><text id="text4684" transform="matrix(.57883 -.81545 -.81545 -.57883 109.38 265.95)" font-size="29.297px" font-family="Helvetica" fill="#231f20"><tspan id="tspan4686" y="0" x="0">S</tspan></text>
<g id="g4688"><g id="g4690" clip-path="url(#clipPath4692)"><g id="g4696" transform="translate(115.73 268.72)"><path id="path4698" d="m0 0c-1.867-1.291-2.924-2.907-3.17-4.851-0.255-1.948 0.356-3.961 1.831-6.039 1.265-1.783 2.784-3.057 4.556-3.824 1.772-0.766 3.607-0.476 5.504 0.871 1.524 1.082 2.313 2.434 2.365 4.058 0.025 0.936-0.228 2.059-0.761 3.37l-1.104 2.717c-0.739 1.832-1.142 3.059-1.209 3.68-0.093 0.954 0.281 1.73 1.121 2.326 0.762 0.541 1.635 0.729 2.618 0.563s1.94-0.905 2.872-2.217c1.153-1.625 1.524-3.095 1.111-4.408-0.231-0.713-0.765-1.451-1.603-2.214l1.548-2.182c1.905 1.353 2.858 2.948 2.858 4.785-0.001 1.838-0.622 3.631-1.863 5.379-1.348 1.9-2.884 3.017-4.607 3.353-1.724 0.336-3.356-0.043-4.895-1.136-1.424-1.01-2.119-2.297-2.085-3.859 0.02-0.903 0.381-2.21 1.082-3.922l1.071-2.622c0.579-1.425 0.877-2.561 0.895-3.41 0.004-0.846-0.46-1.601-1.393-2.263-1.245-0.883-2.581-0.829-4.01 0.162-0.738 0.512-1.405 1.188-2 2.027-1.33 1.873-1.69 3.583-1.081 5.131 0.33 0.82 0.962 1.601 1.897 2.344l-1.548 2.181z" stroke="#2a3e7a" stroke-width=".01" fill="none"/></g></g></g><text id="text4700" transform="matrix(.62855 -.77777 -.77777 -.62855 121.34 249.46)" font-size="29.296px" font-family="Helvetica" fill="#231f20"><tspan id="tspan4702" y="0" x="0">.</tspan></text>
<g id="g4704" transform="translate(122.91 247.51)"><path id="path4706" d="m0 0 1.879-2.325 2.426 1.96-1.88 2.325-2.425-1.96z" stroke="#2a3e7a" stroke-width=".01" fill="none"/></g><text id="text4708" transform="matrix(.70531 -.70890 -.70890 -.70531 132.58 235.79)" font-size="29.298px" font-family="Helvetica" fill="#231f20"><tspan id="tspan4710" y="0" x="0">D</tspan></text>
<g id="g4712"><g id="g4714" clip-path="url(#clipPath4716)"><g id="g4720" transform="translate(138 233.8)"><path id="path4722" d="m0 0 11.44 11.382 3.482-3.501c1.586-1.593 2.224-3.256 1.917-4.989s-1.384-3.518-3.229-5.354c-0.48-0.478-1.05-0.946-1.71-1.406-1.111-0.763-2.161-1.249-3.151-1.457-1.237-0.258-2.369-0.134-3.396 0.37-0.569 0.289-1.186 0.767-1.85 1.435l-3.503 3.52zm-3.752 0.323 5.904-5.935c2.51-2.521 5.408-3.176 8.695-1.964 1.862 0.685 3.584 1.814 5.166 3.388 2.048 2.038 3.234 4.207 3.557 6.506 0.345 2.56-0.488 4.851-2.5 6.873l-5.924 5.954-14.898-14.822z" stroke="#2a3e7a" stroke-width=".01" fill="none"/></g></g></g><text id="text4724" transform="matrix(.76752 -.64102 -.64102 -.76752 148.43 219.99)" font-size="29.298px" font-family="Helvetica" fill="#231f20"><tspan id="tspan4726" y="0" x="0">E</tspan></text>
<g id="g4728" transform="translate(150.35 218.39)"><path id="path4730" d="m0 0 11.869-9.913 1.605 1.922-9.739 8.133 4.567 5.468 8.849-7.391 1.559 1.867-8.849 7.391 4.089 4.897 9.575-7.996 1.65 1.976l-11.704 9.775-13.471-16.129z" stroke="#2a3e7a" stroke-width=".01" fill="none"/></g><text id="text4732" transform="matrix(.82122 -.57061 -.57061 -.82122 164.38 206.74)" font-size="29.298px" font-family="Helvetica" fill="#231f20"><tspan id="tspan4734" y="0" x="0">P</tspan></text>
<g id="g4736"><g id="g4738" clip-path="url(#clipPath4740)"><g id="g4744" transform="translate(166.43 205.32)"><path id="path4746" d="m0 0 2.338-1.624 5.069 7.295 5.389-3.744c1.726-1.2 3.355-1.591 4.886-1.174 1.532 0.416 2.766 1.298 3.702 2.645 1.088 1.566 1.464 3.108 1.126 4.626-0.337 1.518-1.269 2.807-2.796 3.868l-7.723 5.366-11.991-17.258zm19.014 5.027c-0.783-1.128-1.655-1.689-2.615-1.685-0.959 0.005-1.96 0.37-3.002 1.093l-4.619 3.21 4.155 5.98 4.619-3.21c0.894-0.621 1.514-1.232 1.858-1.831 0.618-1.102 0.486-2.288-0.396-3.557z" stroke="#2a3e7a" stroke-width=".01" fill="none"/></g></g></g><text id="text4748" transform="matrix(.86825 -.49613 -.49613 -.86825 181.43 194.96)" font-size="29.297px" font-family="Helvetica" fill="#231f20"><tspan id="tspan4750" y="0" x="0">A</tspan></text>
<g id="g4752" transform="translate(191.33 199.22)"><path id="path4754" d="m0 0 7.525 6.393-1.797-9.666-5.728 3.273zm-9.514-4.482 2.534-1.448 5.102 4.334 7.158-4.09-1.218-6.553 2.707-1.548 3.804 22.03-2.79 1.594-17.297-14.319z" stroke="#2a3e7a" stroke-width=".01" fill="none"/></g><text id="text4756" transform="matrix(.90967 -.41533 -.41533 -.90967 199.46 184.68)" font-size="29.296px" font-family="Helvetica" fill="#231f20"><tspan id="tspan4758" y="0" x="0">R</tspan></text>
<g id="g4760"><g id="g4762" clip-path="url(#clipPath4764)"><g id="g4768" transform="translate(209.12 192.79)"><path id="path4770" d="m0 0 2.983 6.532 6.15-2.808c0.86-0.392 1.488-0.836 1.884-1.332 0.736-0.933 0.793-2.081 0.171-3.443-0.578-1.267-1.322-1.986-2.231-2.158-0.91-0.172-1.955 0.012-3.136 0.551l-5.821 2.658zm-7.319-9.176 2.59-1.182 3.743 8.198 5.727-2.615c1.028-0.469 1.729-0.931 2.103-1.385 0.648-0.81 0.717-1.853 0.206-3.129l-1.3-3.259c-0.306-0.762-0.492-1.285-0.559-1.569-0.066-0.284-0.094-0.528-0.083-0.733l3.175-1.449 0.197 0.429c-0.32 0.356-0.42 0.873-0.299 1.551 0.067 0.4 0.254 0.97 0.561 1.71l1.079 2.605c0.464 1.13 0.62 2.029 0.468 2.696-0.151 0.667-0.531 1.322-1.138 1.966 1.052 0.055 1.981 0.338 2.786 0.851 0.806 0.513 1.47 1.342 1.993 2.487 1.002 2.195 0.807 4.102-0.584 5.723-0.734 0.849-1.817 1.6-3.248 2.254l-8.689 3.967-8.728-19.116z" stroke="#2a3e7a" stroke-width=".01" fill="none"/></g></g></g><text id="text4772" transform="matrix(.94217 -.33513 -.33513 -.94217 219.82 175.52)" font-size="29.296px" font-family="Helvetica" fill="#231f20"><tspan id="tspan4774" y="0" x="0">T</tspan></text>
<g id="g4776" transform="translate(227.31 195.16)"><path id="path4778" d="m0 0-0.839-2.359 6.672-2.373-6.204-17.44 2.709-0.963 6.204 17.44 6.671-2.373 0.839 2.358l-16.052 5.71z" stroke="#2a3e7a" stroke-width=".01" fill="none"/></g><text id="text4780" transform="matrix(.96970 -.24430 -.24430 -.96970 237.88 168.99)" font-size="29.299px" font-family="Helvetica" fill="#231f20"><tspan id="tspan4782" y="0" x="0">M</tspan></text>
<g id="g4784"><g id="g4786" clip-path="url(#clipPath4788)"><g id="g4792" transform="translate(239.97 168.47)"><path id="path4794" d="m0 0 2.636-0.664 3.03 12.027c0.121 0.481 0.296 1.236 0.526 2.265s0.408 1.793 0.534 2.293l0.157 0.624 1.543-18.668 2.736-0.689 10.148 15.722c-0.277-1.1-0.546-2.129-0.807-3.086-0.261-0.958-0.444-1.644-0.548-2.06l-3.031-12.028 2.636-0.664 5.134 20.379-3.927 0.989-10.159-15.764-1.519 18.706-3.955 0.997-5.134-20.379z" stroke="#2a3e7a" stroke-width=".01" fill="none"/></g></g></g><text id="text4796" transform="matrix(.98916 -.14681 -.14681 -.98916 262.88 162.89)" font-size="29.297px" font-family="Helvetica" fill="#231f20"><tspan id="tspan4798" y="0" x="0">E</tspan></text>
<g id="g4800" transform="translate(265.36 162.52)"><path id="path4802" d="m0 0 15.296-2.27 0.368 2.476-12.551 1.863 1.046 7.047 11.404-1.693 0.357 2.405-11.404 1.693 0.936 6.311 12.339-1.831 0.378 2.547-15.084 2.238-3.085-20.786z" stroke="#2a3e7a" stroke-width=".01" fill="none"/></g><text id="text4804" transform="matrix(.99848 -.055106 -.055106 -.99848 283.45 159.86)" font-size="29.296px" font-family="Helvetica" fill="#231f20"><tspan id="tspan4806" y="0" x="0">N</tspan></text>
<g id="g4808" transform="translate(285.68 159.73)"><path id="path4810" d="m0 0 2.714-0.15 0.934 16.933 9.684-17.519 3.194-0.176 1.158 20.982-2.714 0.15-0.936-16.953-9.528 17.53-3.348 0.185-1.158-20.982z" stroke="#2a3e7a" stroke-width=".01" fill="none"/></g><text id="text4812" transform="matrix(.99945 .033303 .033303 -.99945 305.76 158.75)" font-size="29.297px" font-family="Helvetica" fill="#231f20"><tspan id="tspan4814" y="0" x="0">T</tspan></text>
<g id="g4816" transform="translate(305.54 179.77)"><path id="path4818" d="m0 0 0.083-2.502 7.078 0.236 0.616-18.501 2.874 0.096-0.617 18.501 7.078 0.235l-0.084 2.502-17.028-0.567z" stroke="#2a3e7a" stroke-width=".01" fill="none"/></g><text id="text4820" transform="matrix(.98692 .16120 .16120 -.98692 333.52 160.16)" font-size="29.298px" font-family="Helvetica" fill="#231f20"><tspan id="tspan4822" y="0" x="0">O</tspan></text>
<g id="g4824"><g id="g4826" clip-path="url(#clipPath4828)"><g id="g4832" transform="translate(341.19 183.28)"><path id="path4834" d="m0 0c-3.501-0.572-5.937-2.284-7.307-5.136-1.068-2.223-1.372-4.737-0.914-7.542 0.508-3.106 1.741-5.543 3.702-7.31 2.17-1.81 4.851-2.454 8.042-1.933 3.416 0.558 5.85 2.192 7.302 4.903 1.236 2.309 1.602 5.011 1.096 8.108-0.467 2.861-1.538 5.098-3.212 6.709-2.145 2.065-5.048 2.799-8.709 2.201zm3.453-19.367c-2.607-0.426-4.621 0.055-6.041 1.443s-2.318 3.231-2.693 5.53c-0.47 2.873-0.147 5.158 0.968 6.853 1.114 1.696 2.745 2.719 4.891 3.07 2.211 0.361 4.077-0.099 5.595-1.379 1.519-1.28 2.477-3.14 2.876-5.579 0.377-2.308 0.157-4.441-0.659-6.397s-2.461-3.137-4.937-3.541z" stroke="#2a3e7a" stroke-width=".01" fill="none"/></g></g></g><text id="text4836" transform="matrix(.96812 .25050 .25050 -.96812 357.19 164.19)" font-size="29.298px" font-family="Helvetica" fill="#231f20"><tspan id="tspan4838" y="0" x="0">F</tspan></text>
<g id="g4840" transform="translate(359.61 164.82)"><path id="path4842" d="m0 0 2.756 0.713-2.394 9.252 9.986 2.584-0.627 2.423-9.986-2.584-1.598 6.177 11.356 2.939-0.645 2.493-14.112-3.652 5.264-20.345z" stroke="#2a3e7a" stroke-width=".01" fill="none"/></g><text id="text4844" transform="matrix(.92974 .36822 .36822 -.92974 383.9 171.63)" font-size="29.297px" font-family="Helvetica" fill="#231f20"><tspan id="tspan4846" y="0" x="0">C</tspan></text>
<g id="g4848"><g id="g4850" clip-path="url(#clipPath4852)"><g id="g4856" transform="translate(386.15 195.74)"><path id="path4858" d="m0 0c-2.866-1.135-4.717-3.028-5.552-5.678-0.777-2.443-0.594-5.106 0.548-7.99 1.504-3.797 3.62-6.208 6.347-7.232 2.07-0.771 4.226-0.712 6.47 0.176 2.603 1.031 4.34 2.688 5.21 4.972 0.729 1.898 0.799 3.922 0.213 6.069l-2.581-1.022c0.248-1.389 0.263-2.584 0.044-3.583-0.408-1.895-1.571-3.222-3.487-3.981-2.082-0.825-3.929-0.733-5.543 0.276s-2.874 2.658-3.781 4.947c-1.107 2.796-1.347 5.1-0.721 6.914 0.627 1.814 1.885 3.095 3.775 3.843 1.55 0.614 2.899 0.723 4.048 0.327 1.15-0.397 2.117-1.168 2.903-2.313l2.581 1.022c-0.806 1.599-2.142 2.783-4.008 3.552s-4.021 0.669-6.466-0.299z" stroke="#2a3e7a" stroke-width=".01" fill="none"/></g></g></g><text id="text4860" transform="matrix(.88911 .45770 .45770 -.88911 404.79 179.93)" font-size="29.299px" font-family="Helvetica" fill="#231f20"><tspan id="tspan4862" y="0" x="0">O</tspan></text>
<g id="g4864"><g id="g4866" clip-path="url(#clipPath4868)"><g id="g4872" transform="translate(404.96 204.29)"><path id="path4874" d="m0 0c-3.154-1.624-4.944-4.004-5.367-7.14-0.33-2.444 0.156-4.929 1.457-7.456 1.44-2.798 3.365-4.735 5.775-5.812 2.623-1.052 5.372-0.839 8.246 0.641 3.079 1.585 4.89 3.89 5.434 6.917 0.465 2.577-0.021 5.261-1.457 8.051-1.327 2.577-3.035 4.374-5.125 5.391-2.677 1.303-5.664 1.106-8.963-0.592zm9.258-17.358c-2.349-1.21-4.413-1.373-6.192-0.49-1.779 0.882-3.202 2.358-4.268 4.429-1.332 2.589-1.73 4.861-1.192 6.818 0.537 1.957 1.772 3.433 3.706 4.428 1.992 1.026 3.908 1.164 5.748 0.415 1.839-0.75 3.324-2.223 4.456-4.421 1.07-2.08 1.519-4.176 1.346-6.288-0.173-2.113-1.374-3.743-3.604-4.891z" stroke="#2a3e7a" stroke-width=".01" fill="none"/></g></g></g><text id="text4876" transform="matrix(.83574 .54913 .54913 -.83574 426.31 191.05)" font-size="29.297px" font-family="Helvetica" fill="#231f20"><tspan id="tspan4878" y="0" x="0">M</tspan></text>
<g id="g4880"><g id="g4882" clip-path="url(#clipPath4884)"><g id="g4888" transform="translate(428.11 192.23)"><path id="path4890" d="m0 0 2.272 1.493-6.811 10.365c-0.272 0.414-0.71 1.054-1.313 1.919-0.602 0.865-1.045 1.513-1.328 1.943l-0.353 0.538 14.795-11.487 2.357 1.549-4.718 18.108c0.623-0.949 1.199-1.843 1.728-2.682 0.528-0.839 0.91-1.438 1.146-1.797l6.811-10.365 2.271 1.492-11.539 17.563-3.385-2.224 4.742-18.143-14.806 11.53-3.409-2.239 11.54-17.563z" stroke="#2a3e7a" stroke-width=".01" fill="none"/></g></g></g><text id="text4892" transform="matrix(.77052 .63742 .63742 -.77052 447.89 205.32)" font-size="29.298px" font-family="Helvetica" fill="#231f20"><tspan id="tspan4894" y="0" x="0">M</tspan></text>
<g id="g4896"><g id="g4898" clip-path="url(#clipPath4900)"><g id="g4904" transform="translate(449.56 206.7)"><path id="path4906" d="m0 0 2.094 1.733-7.906 9.556c-0.316 0.382-0.821 0.97-1.514 1.764-0.694 0.794-1.205 1.389-1.533 1.786l-0.411 0.496 15.965-9.796 2.174 1.798-6.675 17.481c0.723-0.874 1.394-1.7 2.011-2.476 0.618-0.776 1.063-1.33 1.337-1.661l7.906-9.556 2.094 1.732-13.395 16.193-3.121-2.582 6.703-17.514-15.982 9.838-3.142-2.6 13.395-16.192z" stroke="#2a3e7a" stroke-width=".01" fill="none"/></g></g></g><text id="text4908" transform="matrix(.70350 .71070 .71070 -.70350 467.6 221.86)" font-size="29.299px" font-family="Helvetica" fill="#231f20"><tspan id="tspan4910" y="0" x="0">E</tspan></text>
<g id="g4912" transform="translate(469.36 223.64)"><path id="path4914" d="m0 0 10.879 10.991-1.779 1.761-8.927-9.018-5.063 5.012l8.112 8.195-1.729 1.71-8.112-8.194-4.534 4.488 8.776 8.866-1.83 1.812-10.729-10.839 14.936-14.784z" stroke="#2a3e7a" stroke-width=".01" fill="none"/></g><text id="text4916" transform="matrix(.63511 .77242 .77242 -.63511 482.2 236.64)" font-size="29.298px" font-family="Helvetica" fill="#231f20"><tspan id="tspan4918" y="0" x="0">R</tspan></text>
<g id="g4920"><g id="g4922" clip-path="url(#clipPath4924)"><g id="g4928" transform="translate(476.85 248.06)"><path id="path4930" d="m0 0-5.547 4.561 4.294 5.223c0.601 0.73 1.191 1.223 1.772 1.479 1.091 0.471 2.215 0.231 3.372-0.72 1.075-0.884 1.579-1.788 1.512-2.711-0.068-0.923-0.514-1.886-1.339-2.889l-4.064-4.943zm6.988-9.431 1.808 2.199-6.962 5.724 3.999 4.863c0.718 0.873 1.344 1.432 1.879 1.677 0.949 0.418 1.975 0.217 3.077-0.605l2.816-2.094c0.658-0.491 1.115-0.806 1.373-0.943 0.257-0.138 0.486-0.227 0.687-0.268l2.217 2.696-0.365 0.3c-0.426-0.218-0.951-0.181-1.576 0.11-0.369 0.167-0.872 0.494-1.509 0.981l-2.24 1.713c-0.973 0.738-1.801 1.12-2.485 1.145-0.683 0.024-1.414-0.174-2.193-0.596 0.218 1.031 0.182 2.002-0.106 2.912-0.289 0.91-0.919 1.765-1.892 2.565-1.864 1.532-3.757 1.834-5.681 0.907-1.009-0.492-2.014-1.346-3.013-2.561l-6.067-7.378 16.233-13.347z" stroke="#2a3e7a" stroke-width=".01" fill="none"/></g></g></g><text id="text4932" transform="matrix(.55832 .82963 .82963 -.55832 496.4 254.01)" font-size="29.298px" font-family="Helvetica" fill="#231f20"><tspan id="tspan4934" y="0" x="0">C</tspan></text>
<g id="g4936"><g id="g4938" clip-path="url(#clipPath4940)"><g id="g4944" transform="translate(484.62 275.17)"><path id="path4946" d="m0 0c-1.721-2.557-2.176-5.165-1.366-7.824 0.742-2.453 2.399-4.546 4.972-6.277 3.389-2.281 6.498-3.072 9.326-2.373 2.143 0.535 3.888 1.804 5.235 3.806 1.564 2.323 2.058 4.672 1.484 7.047-0.474 1.978-1.56 3.686-3.259 5.125l-1.549-2.303c0.99-1.005 1.678-1.982 2.063-2.93 0.735-1.793 0.528-3.545-0.623-5.255-1.25-1.858-2.826-2.827-4.727-2.908-1.901-0.082-3.873 0.565-5.916 1.94-2.495 1.679-3.997 3.443-4.506 5.293-0.51 1.85-0.197 3.618 0.937 5.304 0.931 1.383 1.983 2.237 3.154 2.56 1.172 0.323 2.406 0.235 3.702-0.264l1.55 2.302c-1.569 0.863-3.341 1.084-5.314 0.662-1.974-0.422-3.695-1.723-5.163-3.905z" stroke="#2a3e7a" stroke-width=".01" fill="none"/></g></g></g><text id="text4948" transform="matrix(.48011 .87721 .87721 -.48011 508.82 272.63)" font-size="29.298px" font-family="Helvetica" fill="#231f20"><tspan id="tspan4950" y="0" x="0">E</tspan></text>
<g id="g4952" transform="translate(510.02 274.83)"><path id="path4954" d="m0 0 7.425 13.566-2.196 1.202-6.093-11.131-6.249 3.42 5.536 10.115-2.134 1.167-5.536-10.114-5.597 3.063 5.99 10.943-2.259 1.236l-7.322-13.377 18.435-10.09z" stroke="#2a3e7a" stroke-width=".01" fill="none"/></g><text id="text4956" transform="matrix(-.28719 .95787 .95787 .28719 105.48 323.79)" font-size="29.301px" font-family="Helvetica" fill="#000000"><tspan id="tspan4958" y="0" x="0">N</tspan></text>
<g id="g4960" transform="translate(104.84 325.92)"><path id="path4962" d="m0 0-0.781 2.604-16.246-4.871 13.192 15.059-0.919 3.064-20.132-6.036 0.781-2.604 16.266 4.877-13.256-14.916 0.963-3.213 20.132 6.036z" stroke="#2a3e7a" stroke-width=".01" fill="none"/></g><text id="text4964" transform="matrix(-.19731 .98034 .98034 .19731 99.552 343.61)" font-size="29.299px" font-family="Helvetica" fill="#000000"><tspan id="tspan4966" y="0" x="0">A</tspan></text>
<g id="g4968" transform="translate(89.829 348.27)"><path id="path4970" d="m0 0-9.765 1.464 8.463 5.004 1.302-6.468zm9.634-4.219-0.576 2.861-6.62 0.992-1.627 8.083 5.738 3.393-0.615 3.058-19.098-11.625 0.634-3.15 22.164-3.612z" stroke="#2a3e7a" stroke-width=".01" fill="none"/></g><text id="text4972" transform="matrix(-.11330 .99356 .99356 .11330 95.796 362.35)" font-size="29.301px" font-family="Helvetica" fill="#000000"><tspan id="tspan4974" y="0" x="0">T</tspan></text>
<g id="g4976" transform="translate(74.861 360.44)"><path id="path4978" d="m0 0 2.488 0.284-0.803 7.036 18.395 2.098-0.326 2.857-18.395-2.098-0.802 7.037-2.488-0.284 1.931-16.93z" stroke="#2a3e7a" stroke-width=".01" fill="none"/></g><text id="text4980" transform="matrix(-.054302 .99852 .99852 .054302 93.936 379.85)" font-size="29.299px" font-family="Helvetica" fill="#000000"><tspan id="tspan4982" y="0" x="0">I</tspan></text>
<g id="g4984" transform="translate(93.78 382.72)"><path id="path4986" d="m0 0-0.156 2.871-20.985-1.141 0.156-2.871 20.985 1.141z" stroke="#2a3e7a" stroke-width=".01" fill="none"/></g><text id="text4988" transform="matrix(.016098 .99987 .99987 -.016098 93.242 387.64)" font-size="29.301px" font-family="Helvetica" fill="#000000"><tspan id="tspan4990" y="0" x="0">O</tspan></text>
<g id="g4992"><g id="g4994" clip-path="url(#clipPath4996)"><g id="g5000" transform="translate(71.837 399.28)"><path id="path5002" d="m0 0c-0.057-3.548 1.197-6.249 3.762-8.102 1.999-1.444 4.419-2.189 7.261-2.235 3.147-0.051 5.764 0.732 7.851 2.349 2.166 1.816 3.275 4.34 3.327 7.573 0.056 3.462-1.122 6.147-3.534 8.056-2.053 1.626-4.648 2.464-7.786 2.515-2.899 0.047-5.29-0.611-7.172-1.974-2.413-1.745-3.649-4.472-3.709-8.182zm19.674-0.031c-0.042-2.641-0.872-4.538-2.49-5.69s-3.591-1.71-5.92-1.672c-2.911 0.047-5.102 0.769-6.574 2.166-1.472 1.398-2.19 3.183-2.155 5.358 0.036 2.241 0.818 3.995 2.347 5.264 1.529 1.267 3.53 1.882 6.002 1.842 2.338-0.038 4.398-0.632 6.179-1.781 1.781-1.15 2.652-2.979 2.611-5.487z" stroke="#2a3e7a" stroke-width=".01" fill="none"/></g></g></g><text id="text5004" transform="matrix(.11599 .99325 .99325 -.11599 93.616 409.92)" font-size="29.301px" font-family="Helvetica" fill="#000000"><tspan id="tspan5006" y="0" x="0">N</tspan></text>
<g id="g5008" transform="translate(93.875 412.14)"><path id="path5010" d="m0 0 0.315 2.7-16.846 1.967 18.08 8.598 0.371 3.177-20.876 2.438-0.315-2.7l16.867-1.97-18.083-8.441-0.389-3.331 20.876-2.438z" stroke="#2a3e7a" stroke-width=".01" fill="none"/></g><text id="text5012" transform="matrix(.20791 .97815 .97815 -.20791 96.031 430.47)" font-size="29.299px" font-family="Helvetica" fill="#000000"><tspan id="tspan5014" y="0" x="0">A</tspan></text>
<g id="g5016" transform="translate(88.955 438.6)"><path id="path5018" d="m0 0-8.383 5.219 9.755 1.235-1.372-6.454zm7.169-7.696 0.607 2.855-5.684 3.538 1.715 8.065 6.613 0.837 0.648 3.051-22.142-3.092-0.668-3.143 18.911-12.111z" stroke="#2a3e7a" stroke-width=".01" fill="none"/></g><text id="text5020" transform="matrix(.28771 .95772 .95772 -.28771 100.06 449.16)" font-size="29.299px" font-family="Helvetica" fill="#000000"><tspan id="tspan5022" y="0" x="0">L</tspan></text>
<g id="g5024" transform="translate(100.7 451.3)"><path id="path5026" d="m0 0 3.853 12.825-2.398 0.72-3.034-10.098-17.729 5.326-0.819-2.727 20.127-6.046z" stroke="#2a3e7a" stroke-width=".01" fill="none"/></g><text id="text5028" transform="matrix(.40722 .91333 .91333 -.40722 107.17 471.89)" font-size="29.299px" font-family="Helvetica" fill="#000000"><tspan id="tspan5030" y="0" x="0">O</tspan></text>
<g id="g5032"><g id="g5034" clip-path="url(#clipPath5036)"><g id="g5040" transform="translate(92.052 491)"><path id="path5042" d="m0 0c-1.445-3.24-1.351-6.217 0.28-8.928 1.272-2.112 3.206-3.747 5.802-4.905 2.874-1.281 5.588-1.588 8.142-0.92 2.704 0.82 4.715 2.706 6.032 5.659 1.409 3.162 1.38 6.094-0.089 8.796-1.25 2.301-3.308 4.091-6.174 5.368-2.648 1.181-5.105 1.514-7.371 1-2.904-0.658-5.111-2.682-6.622-6.07zm18.083-7.749c-1.076-2.413-2.584-3.832-4.524-4.256-1.94-0.425-3.973-0.163-6.101 0.785-2.659 1.186-4.391 2.71-5.196 4.572-0.805 1.863-0.765 3.788 0.121 5.774 0.912 2.047 2.321 3.353 4.224 3.919 1.904 0.567 3.985 0.346 6.243-0.66 2.136-0.953 3.797-2.307 4.984-4.063 1.187-1.757 1.27-3.78 0.249-6.071z" stroke="#2a3e7a" stroke-width=".01" fill="none"/></g></g></g><text id="text5044" transform="matrix(.49710 .86770 .86770 -.49710 116.26 492.23)" font-size="29.3px" font-family="Helvetica" fill="#000000"><tspan id="tspan5046" y="0" x="0">C</tspan></text>
<g id="g5048"><g id="g5050" clip-path="url(#clipPath5052)"><g id="g5056" transform="translate(102.98 512.49)"><path id="path5058" d="m0 0c-1.532-2.675-1.798-5.309-0.799-7.902 0.917-2.394 2.721-4.362 5.412-5.904 3.545-2.031 6.702-2.595 9.473-1.695 2.099 0.688 3.749 2.08 4.948 4.174 1.392 2.429 1.716 4.808 0.972 7.136-0.615 1.939-1.821 3.564-3.619 4.877l-1.38-2.408c1.06-0.932 1.817-1.856 2.269-2.774 0.863-1.736 0.782-3.499-0.243-5.287-1.113-1.943-2.614-3.024-4.505-3.242s-3.904 0.285-6.042 1.51c-2.609 1.494-4.234 3.146-4.876 4.954-0.641 1.809-0.457 3.595 0.554 5.359 0.829 1.447 1.816 2.373 2.961 2.781 1.146 0.407 2.383 0.408 3.712 0.003l1.38 2.408c-1.628 0.747-3.41 0.84-5.349 0.277-1.938-0.563-3.561-1.985-4.868-4.267z" stroke="#2a3e7a" stroke-width=".01" fill="none"/></g></g></g><text id="text5060" transform="matrix(.57527 .81796 .81796 -.57527 126.55 510.17)" font-size="29.301px" font-family="Helvetica" fill="#000000"><tspan id="tspan5062" y="0" x="0">E</tspan></text>
<g id="g5064" transform="translate(127.99 512.22)"><path id="path5066" d="m0 0 8.897 12.651-2.048 1.44-7.3-10.38-5.828 4.099 6.634 9.432-1.99 1.399-6.634-9.432-5.219 3.671 7.177 10.204-2.107 1.482l-8.773-12.475 17.191-12.091z" stroke="#2a3e7a" stroke-width=".01" fill="none"/></g><text id="text5068" transform="matrix(.64488 .76428 .76428 -.64488 137.53 525.82)" font-size="29.301px" font-family="Helvetica" fill="#000000"><tspan id="tspan5070" y="0" x="0">A</tspan></text>
<g id="g5072" transform="translate(135.13 536.33)"><path id="path5074" d="m0 0-4.928 8.558 9.183-3.515-4.255-5.043zm2.689-10.168 1.882 2.23-3.341 5.802 5.317 6.302 6.227-2.383 2.011 2.384-20.982 7.723-2.073-2.456 10.959-19.602z" stroke="#2a3e7a" stroke-width=".01" fill="none"/></g><text id="text5076" transform="matrix(.71268 .70149 .70149 -.71268 149.8 540.44)" font-size="29.301px" font-family="Helvetica" fill="#000000"><tspan id="tspan5078" y="0" x="0">N</tspan></text>
<g id="g5080" transform="translate(151.39 542.01)"><path id="path5082" d="m0 0 1.937 1.907-11.897 12.087 19.478-4.626 2.279 2.244-14.743 14.978-1.937-1.907 11.912-12.102-19.382 4.75-2.39-2.353 14.743-14.978z" stroke="#2a3e7a" stroke-width=".01" fill="none"/></g><text id="text5084" transform="matrix(.75812 .65212 .65212 -.75812 164.77 554.89)" font-size="29.299px" font-family="Helvetica" fill="#000000"><tspan id="tspan5086" y="0" x="0">I</tspan></text>
<g id="g5088" transform="translate(166.95 556.77)"><path id="path5090" d="m0 0 2.18 1.875-13.705 15.933-2.18-1.875 13.705-15.933z" stroke="#2a3e7a" stroke-width=".01" fill="none"/></g><text id="text5092" transform="matrix(.80030 .59960 .59960 -.80030 170.55 560.17)" font-size="29.3px" font-family="Helvetica" fill="#000000"><tspan id="tspan5094" y="0" x="0">C</tspan></text>
<g id="g5096"><g id="g5098" clip-path="url(#clipPath5100)"><g id="g5104" transform="translate(166.39 584.03)"><path id="path5106" d="m0 0c-2.467-1.848-3.755-4.161-3.865-6.939-0.108-2.561 0.769-5.082 2.628-7.565 2.45-3.269 5.125-5.039 8.026-5.31 2.2-0.201 4.265 0.423 6.197 1.87 2.241 1.679 3.481 3.735 3.721 6.167 0.203 2.023-0.26 3.994-1.391 5.912l-2.221-1.664c0.604-1.276 0.932-2.424 0.984-3.446 0.104-1.936-0.669-3.522-2.318-4.758-1.792-1.343-3.599-1.74-5.422-1.191-1.822 0.55-3.471 1.81-4.948 3.781-1.803 2.406-2.641 4.567-2.513 6.482 0.128 1.914 1.005 3.481 2.632 4.7 1.334 0.999 2.608 1.459 3.821 1.379 1.213-0.081 2.35-0.57 3.409-1.469l2.221 1.665c-1.197 1.331-2.798 2.122-4.8 2.374-2.003 0.252-4.056-0.411-6.161-1.988z" stroke="#2a3e7a" stroke-width=".01" fill="none"/></g></g></g><text id="text5108" transform="matrix(.87194 .48962 .48962 -.87194 193.8 576.9)" font-size="29.299px" font-family="Helvetica" fill="#000000"><tspan id="tspan5110" y="0" x="0">A</tspan></text>
<g id="g5112" transform="translate(195.24 587.59)"><path id="path5114" d="m0 0-1.614 9.742 7.367-6.512-5.753-3.23zm-1.047-10.465 2.545 1.429-1.095 6.604 7.189 4.037 4.995-4.414 2.719 1.527-16.94 14.589-2.802-1.573 3.389-22.199z" stroke="#2a3e7a" stroke-width=".01" fill="none"/></g><text id="text5116" transform="matrix(.91382 .40611 .40611 -.91382 210.41 586.3)" font-size="29.299px" font-family="Helvetica" fill="#000000"><tspan id="tspan5118" y="0" x="0">N</tspan></text>
<g id="g5120" transform="translate(212.45 587.21)"><path id="path5122" d="m0 0 2.484 1.104-6.888 15.498 16.607-11.179 2.923 1.299-8.535 19.205-2.484-1.104 6.896-15.517-16.473 11.261-3.065-1.362 8.535-19.205z" stroke="#2a3e7a" stroke-width=".01" fill="none"/></g><text id="text5124" transform="matrix(.94879 .31590 .31590 -.94879 229.29 594.71)" font-size="29.3px" font-family="Helvetica" fill="#000000"><tspan id="tspan5126" y="0" x="0">D</tspan></text>
<g id="g5128"><g id="g5130" clip-path="url(#clipPath5132)"><g id="g5136" transform="translate(233.49 598.68)"><path id="path5138" d="m0 0-5.098 15.312 4.685 1.56c2.133 0.71 3.907 0.541 5.322-0.506s2.533-2.805 3.356-5.276c0.214-0.642 0.38-1.361 0.497-2.156 0.189-1.335 0.156-2.492-0.098-3.471-0.32-1.222-0.935-2.181-1.844-2.876-0.512-0.381-1.215-0.721-2.108-1.018l-4.712-1.569zm-1.96-3.216 7.943 2.645c3.376 1.124 5.253 3.427 5.63 6.911 0.217 1.972-0.027 4.016-0.733 6.134-0.912 2.742-2.326 4.769-4.242 6.082-2.139 1.449-4.561 1.723-7.267 0.822l-7.97-2.654 6.639-19.94z" stroke="#2a3e7a" stroke-width=".01" fill="none"/></g></g></g><text id="text5140" transform="matrix(.98169 .19050 .19050 -.98169 256.64 603.25)" font-size="29.3px" font-family="Helvetica" fill="#000000"><tspan id="tspan5142" y="0" x="0">A</tspan></text>
<g id="g5144" transform="translate(261.36 612.94)"><path id="path5146" d="m0 0 1.532 9.756 4.945-8.499-6.477-1.257zm-4.286-9.605 2.865 0.556 1.038 6.614 8.095 1.571 3.353-5.762 3.062 0.594l-11.492 19.179-3.155-0.613-3.766-22.139z" stroke="#2a3e7a" stroke-width=".01" fill="none"/></g><text id="text5148" transform="matrix(.99433 .10630 .10630 -.99433 275.4 606.88)" font-size="29.299px" font-family="Helvetica" fill="#000000"><tspan id="tspan5150" y="0" x="0">T</tspan></text>
<g id="g5152" transform="translate(273.64 627.82)"><path id="path5154" d="m0 0 0.266-2.489 7.042 0.752 1.967-18.407 2.86 0.306-1.968 18.407 7.041 0.753l-0.266 2.489-16.942-1.811z" stroke="#2a3e7a" stroke-width=".01" fill="none"/></g><text id="text5156" transform="matrix(.99995 .010399 .010399 -.99995 292.72 608.91)" font-size="29.302px" font-family="Helvetica" fill="#000000"><tspan id="tspan5158" y="0" x="0">M</tspan></text>
<g id="g5160"><g id="g5162" clip-path="url(#clipPath5164)"><g id="g5168" transform="translate(294.88 608.93)"><path id="path5170" d="m0 0 2.718 0.028-0.129 12.404c-0.005 0.496-0.027 1.271-0.067 2.325-0.039 1.053-0.062 1.837-0.067 2.352l-0.007 0.644 6.242-17.663 2.821 0.03 5.816 17.788c0.012-1.135 0.013-2.199 0.005-3.191-0.009-0.992-0.011-1.702-0.007-2.132l0.129-12.403 2.718 0.028-0.218 21.016-4.05-0.042-5.816-17.831-6.228 17.706-4.079-0.043 0.219-21.016z" stroke="#2a3e7a" stroke-width=".01" fill="none"/></g></g></g><text id="text5172" transform="matrix(.99528 -.096998 -.096998 -.99528 316.59 609.14)" font-size="29.3px" font-family="Helvetica" fill="#000000"><tspan id="tspan5174" y="0" x="0">O</tspan></text>
<g id="g5176"><g id="g5178" clip-path="url(#clipPath5180)"><g id="g5184" transform="translate(329.93 629.53)"><path id="path5186" d="m0 0c-3.531 0.344-6.325-0.687-8.38-3.093-1.601-1.876-2.539-4.228-2.815-7.057-0.305-3.133 0.263-5.804 1.706-8.015 1.634-2.306 4.06-3.615 7.278-3.929 3.446-0.336 6.218 0.621 8.315 2.87 1.787 1.914 2.833 4.433 3.137 7.557 0.282 2.885-0.181 5.322-1.386 7.308-1.544 2.546-4.162 3.999-7.855 4.359zm-1.623-19.607c-2.63 0.256-4.453 1.237-5.471 2.943-1.017 1.706-1.413 3.717-1.187 6.036 0.283 2.897 1.18 5.023 2.692 6.377 1.512 1.353 3.35 1.925 5.514 1.714 2.231-0.217 3.916-1.14 5.056-2.766 1.14-1.627 1.591-3.67 1.351-6.131-0.227-2.327-0.986-4.332-2.275-6.015-1.291-1.682-3.184-2.401-5.68-2.158z" stroke="#2a3e7a" stroke-width=".01" fill="none"/></g></g></g><text id="text5188" transform="matrix(.98124 -.19281 -.19281 -.98124 338.78 606.92)" font-size="29.299px" font-family="Helvetica" fill="#000000"><tspan id="tspan5190" y="0" x="0">S</tspan></text>
<g id="g5192"><g id="g5194" clip-path="url(#clipPath5196)"><g id="g5200" transform="translate(341.48 613.3)"><path id="path5202" d="m0 0c-0.466-2.222-0.119-4.122 1.041-5.701 1.157-1.588 2.986-2.628 5.487-3.119 2.145-0.422 4.123-0.3 5.937 0.364 1.813 0.664 2.944 2.138 3.392 4.422 0.361 1.834 0.001 3.358-1.079 4.571-0.626 0.696-1.583 1.336-2.872 1.92l-2.672 1.21c-1.798 0.82-2.935 1.432-3.411 1.837-0.724 0.628-0.987 1.448-0.788 2.459 0.18 0.917 0.683 1.654 1.51 2.21 0.827 0.557 2.03 0.681 3.61 0.37 1.955-0.384 3.236-1.195 3.841-2.431 0.324-0.676 0.444-1.58 0.362-2.71l2.625-0.516c0.451 2.293 0.043 4.105-1.223 5.438-1.266 1.332-2.95 2.205-5.054 2.619-2.286 0.449-4.169 0.201-5.65-0.742-1.482-0.943-2.404-2.341-2.768-4.194-0.337-1.713 0.045-3.124 1.145-4.235 0.637-0.64 1.799-1.34 3.486-2.099l2.582-1.163c1.4-0.635 2.399-1.254 2.996-1.858 0.587-0.611 0.769-1.478 0.549-2.6-0.295-1.498-1.301-2.379-3.02-2.644-0.888-0.137-1.837-0.105-2.847 0.093-2.253 0.443-3.692 1.435-4.316 2.977-0.325 0.822-0.405 1.824-0.238 3.006l-2.625 0.516z" stroke="#2a3e7a" stroke-width=".01" fill="none"/></g></g></g><text id="text5204" transform="matrix(.96 -.28 -.28 -.96 357.52 603.26)" font-size="29.3px" font-family="Helvetica" fill="#000000"><tspan id="tspan5206" y="0" x="0">P</tspan></text>
<g id="g5208"><g id="g5210" clip-path="url(#clipPath5212)"><g id="g5216" transform="translate(359.92 602.56)"><path id="path5218" d="m0 0 2.733-0.797 2.488 8.529 6.3-1.838c2.018-0.588 3.686-0.442 5.006 0.44s2.21 2.11 2.669 3.685c0.534 1.831 0.4 3.413-0.402 4.745-0.803 1.332-2.096 2.258-3.881 2.779l-9.028 2.633-5.885-20.176zm16.431 10.811c-0.384-1.319-1.032-2.128-1.943-2.429-0.912-0.3-1.976-0.273-3.194 0.082l-5.4 1.575 2.039 6.991 5.4-1.575c1.045-0.305 1.826-0.687 2.343-1.145 0.936-0.85 1.188-2.016 0.755-3.499z" stroke="#2a3e7a" stroke-width=".01" fill="none"/></g></g></g><text id="text5220" transform="matrix(.92959 -.36860 -.36860 -.92959 375.85 597.98)" font-size="29.3px" font-family="Helvetica" fill="#000000"><tspan id="tspan5222" y="0" x="0">H</tspan></text>
<g id="g5224" transform="translate(377.99 597.13)"><path id="path5226" d="m0 0 2.673-1.06 3.623 9.137 10.041-3.982-3.623-9.136 2.673-1.06 7.747 19.537-2.673 1.059l-3.201-8.072-10.041 3.981 3.201 8.073-2.673 1.06-7.747-19.537z" stroke="#2a3e7a" stroke-width=".01" fill="none"/></g><text id="text5228" transform="matrix(.89106 -.45388 -.45388 -.89106 395.07 590.34)" font-size="29.301px" font-family="Helvetica" fill="#000000"><tspan id="tspan5230" y="0" x="0">E</tspan></text>
<g id="g5232" transform="translate(397.3 589.2)"><path id="path5234" d="m0 0 13.781-7.02 1.137 2.231-11.308 5.76 3.234 6.349 10.275-5.234 1.104 2.167-10.275 5.234 2.896 5.686 11.117-5.662 1.168 2.294-13.59 6.923-9.539-18.728z" stroke="#2a3e7a" stroke-width=".01" fill="none"/></g><text id="text5236" transform="matrix(.84498 -.53479 -.53479 -.84498 412.09 581.73)" font-size="29.301px" font-family="Helvetica" fill="#000000"><tspan id="tspan5238" y="0" x="0">R</tspan></text>
<g id="g5240"><g id="g5242" clip-path="url(#clipPath5244)"><g id="g5248" transform="translate(422.76 588.46)"><path id="path5250" d="m0 0 3.841 6.069 5.714-3.616c0.799-0.506 1.361-1.031 1.686-1.576 0.603-1.025 0.504-2.17-0.297-3.435-0.745-1.177-1.579-1.789-2.504-1.836-0.924-0.047-1.935 0.277-3.032 0.971l-5.408 3.423zm-8.496-8.1 2.406-1.523 4.82 7.616 5.321-3.367c0.955-0.605 1.587-1.157 1.896-1.657 0.533-0.891 0.459-1.934-0.22-3.129l-1.73-3.054c-0.406-0.713-0.662-1.206-0.767-1.478-0.104-0.273-0.165-0.511-0.181-0.715l2.95-1.867 0.252 0.399c-0.269 0.396-0.297 0.922-0.085 1.578 0.12 0.386 0.383 0.925 0.787 1.618l1.423 2.435c0.612 1.057 0.889 1.926 0.829 2.607-0.06 0.682-0.347 1.383-0.861 2.103 1.049-0.088 2.008 0.067 2.876 0.466s1.638 1.13 2.311 2.194c1.291 2.039 1.357 3.956 0.198 5.75-0.613 0.941-1.584 1.832-2.913 2.674l-8.072 5.109-11.24-17.759z" stroke="#2a3e7a" stroke-width=".01" fill="none"/></g></g></g><text id="text5252" transform="matrix(.80762 -.58971 -.58971 -.80762 429.56 570.43)" font-size="29.299px" font-family="Helvetica" fill="#000000"><tspan id="tspan5254" y="0" x="0">I</tspan></text>
<g id="g5256" transform="translate(431.88 568.74)"><path id="path5258" d="m0 0 2.322-1.696 12.394 16.973-2.323 1.696-12.393-16.973z" stroke="#2a3e7a" stroke-width=".01" fill="none"/></g><text id="text5260" transform="matrix(.76706 -.64157 -.64157 -.76706 436.02 565.99)" font-size="29.301px" font-family="Helvetica" fill="#000000"><tspan id="tspan5262" y="0" x="0">C</tspan></text>
<g id="g5264"><g id="g5266" clip-path="url(#clipPath5268)"><g id="g5272" transform="translate(458.29 575.51)"><path id="path5274" d="m0 0c-2.365 1.978-4.912 2.702-7.64 2.172-2.518-0.482-4.772-1.913-6.762-4.292-2.621-3.134-3.731-6.144-3.33-9.03 0.309-2.187 1.39-4.055 3.241-5.603 2.148-1.797 4.434-2.533 6.856-2.209 2.016 0.265 3.829 1.168 5.436 2.708l-2.129 1.781c-1.103-0.88-2.146-1.463-3.129-1.747-1.86-0.546-3.581-0.157-5.163 1.166-1.717 1.436-2.518 3.105-2.401 5.004 0.117 1.9 0.966 3.794 2.546 5.684 1.929 2.306 3.84 3.617 5.733 3.931 1.894 0.314 3.62-0.18 5.179-1.485 1.279-1.069 2.018-2.204 2.218-3.403s-0.016-2.417-0.648-3.655l2.129-1.78c1.022 1.47 1.425 3.21 1.211 5.216-0.214 2.007-1.33 3.855-3.347 5.542z" stroke="#2a3e7a" stroke-width=".01" fill="none"/></g></g></g><text id="text5276" transform="matrix(.67767 -.73537 -.73537 -.67767 457.66 547.2)" font-size="29.301px" font-family="Helvetica" fill="#000000"><tspan id="tspan5278" y="0" x="0">A</tspan></text>
<g id="g5280" transform="translate(468.39 548.27)"><path id="path5282" d="m0 0 9.107 3.82-4.636-8.672-4.471 4.852zm-10.425-1.397 1.978-2.146 6.174 2.59 5.588-6.064-3.143-5.88 2.114-2.293 10.286 19.852-2.178 2.364-20.819-8.423z" stroke="#2a3e7a" stroke-width=".01" fill="none"/></g><text id="text5284" transform="matrix(.60598 -.79548 -.79548 -.60598 470.63 533.21)" font-size="29.301px" font-family="Helvetica" fill="#000000"><tspan id="tspan5286" y="0" x="0">D</tspan></text>
<g id="g5288"><g id="g5290" clip-path="url(#clipPath5292)"><g id="g5296" transform="translate(475.74 530.52)"><path id="path5298" d="m0 0 12.838 9.78 2.992-3.929c1.362-1.788 1.777-3.521 1.245-5.198-0.533-1.678-1.835-3.306-3.906-4.884-0.539-0.41-1.166-0.799-1.88-1.168-1.202-0.61-2.307-0.954-3.315-1.031-1.261-0.092-2.367 0.179-3.318 0.814-0.527 0.361-1.076 0.916-1.646 1.665l-3.01 3.951zm-3.677 0.814 5.073-6.66c2.156-2.83 4.943-3.861 8.361-3.091 1.936 0.434 3.792 1.327 5.567 2.679 2.299 1.752 3.76 3.746 4.382 5.983 0.679 2.493 0.154 4.874-1.574 7.142l-5.091 6.683-16.718-12.736z" stroke="#2a3e7a" stroke-width=".01" fill="none"/></g></g></g><text id="text5300" transform="matrix(.51930 -.85459 -.85459 -.51930 483.23 516.86)" font-size="29.3px" font-family="Helvetica" fill="#000000"><tspan id="tspan5302" y="0" x="0">M</tspan></text>
<g id="g5304"><g id="g5306" clip-path="url(#clipPath5308)"><g id="g5312" transform="translate(484.35 515.01)"><path id="path5314" d="m0 0 1.412-2.323 10.6 6.441c0.424 0.258 1.079 0.673 1.964 1.244 0.886 0.572 1.549 0.992 1.989 1.259l0.551 0.334-12.003-14.381 1.465-2.411 18.264 4.077c-0.97-0.59-1.884-1.134-2.741-1.632-0.858-0.499-1.47-0.86-1.837-1.083l-10.6-6.441 1.411-2.323 17.961 10.914-2.103 3.461-18.301-4.1 12.047 14.392-2.118 3.486-17.961-10.914z" stroke="#2a3e7a" stroke-width=".01" fill="none"/></g></g></g><text id="text5316" transform="matrix(0.454 -0.891 -0.891 -0.454 495.45 496.19)" font-size="29.3px" font-family="Helvetica" fill="#000000"><tspan id="tspan5318" y="0" x="0">I</tspan></text>
<g id="g5320" transform="translate(496.76 493.63)"><path id="path5322" d="m0 0 1.306-2.562 18.725 9.541-1.305 2.562-18.726-9.541z" stroke="#2a3e7a" stroke-width=".01" fill="none"/></g><text id="text5324" transform="matrix(.39310 -.91950 -.91950 -.39310 499.21 489.32)" font-size="29.3px" font-family="Helvetica" fill="#000000"><tspan id="tspan5326" y="0" x="0">N</tspan></text>
<g id="g5328" transform="translate(500.09 487.27)"><path id="path5330" d="m0 0 1.069-2.499 15.595 6.667-11.414-16.447 1.257-2.941 19.325 8.261-1.069 2.5-15.614-6.675 11.494 16.312-1.318 3.084-19.325-8.262z" stroke="#2a3e7a" stroke-width=".01" fill="none"/></g><text id="text5332" transform="matrix(.33059 -.94377 -.94377 -.33059 507.2 470.11)" font-size="29.301px" font-family="Helvetica" fill="#000000"><tspan id="tspan5334" y="0" x="0">I</tspan></text>
<g id="g5336" transform="translate(508.15 467.39)"><path id="path5338" d="m0 0 0.951-2.714 19.835 6.948-0.951 2.714-19.835-6.948z" stroke="#2a3e7a" stroke-width=".01" fill="none"/></g><text id="text5340" transform="matrix(.27039 -.96275 -.96275 -.27039 509.97 462.77)" font-size="29.301px" font-family="Helvetica" fill="#000000"><tspan id="tspan5342" y="0" x="0">S</tspan></text>
<g id="g5344"><g id="g5346" clip-path="url(#clipPath5348)"><g id="g5352" transform="translate(516.88 463.24)"><path id="path5354" d="m0 0c-2.193-0.586-3.733-1.753-4.62-3.5-0.895-1.749-0.999-3.851-0.309-6.305 0.591-2.104 1.591-3.816 3.002-5.135s3.236-1.663 5.477-1.034c1.8 0.505 2.998 1.514 3.594 3.025 0.339 0.873 0.479 2.016 0.419 3.429l-0.125 2.932c-0.079 1.974-0.045 3.265 0.101 3.873 0.234 0.929 0.847 1.533 1.839 1.812 0.9 0.253 1.785 0.136 2.655-0.351 0.87-0.488 1.522-1.506 1.958-3.055 0.539-1.92 0.393-3.428-0.438-4.526-0.458-0.594-1.21-1.109-2.256-1.545l0.723-2.576c2.25 0.632 3.684 1.813 4.303 3.544 0.618 1.73 0.638 3.628 0.058 5.692-0.63 2.243-1.7 3.813-3.21 4.71-1.51 0.896-3.174 1.089-4.992 0.579-1.681-0.472-2.769-1.449-3.264-2.932-0.284-0.858-0.385-2.21-0.301-4.058l0.126-2.83c0.065-1.537-0.038-2.707-0.307-3.512-0.281-0.799-0.972-1.353-2.074-1.663-1.47-0.412-2.71 0.089-3.721 1.503-0.523 0.732-0.923 1.593-1.201 2.583-0.622 2.212-0.385 3.944 0.71 5.196 0.587 0.661 1.446 1.184 2.576 1.568l-0.723 2.576z" stroke="#2a3e7a" stroke-width=".01" fill="none"/></g></g></g><text id="text5356" transform="matrix(.18749 -.98227 -.98227 -.18749 515.12 444.36)" font-size="29.301px" font-family="Helvetica" fill="#000000"><tspan id="tspan5358" y="0" x="0">T</tspan></text>
<g id="g5360" transform="translate(535.85 447.84)"><path id="path5362" d="m0 0-2.459-0.469 1.327-6.957-18.185-3.471 0.54-2.825 18.185 3.471 1.327-6.956 2.46 0.469l-3.195 16.738z" stroke="#2a3e7a" stroke-width=".01" fill="none"/></g><text id="text5364" transform="matrix(.099603 -.99503 -.99503 -.099603 518.49 427.22)" font-size="29.299px" font-family="Helvetica" fill="#000000"><tspan id="tspan5366" y="0" x="0">R</tspan></text>
<g id="g5368"><g id="g5370" clip-path="url(#clipPath5372)"><g id="g5376" transform="translate(530.36 422.96)"><path id="path5378" d="m0 0 7.146 0.715 0.674-6.728c0.094-0.941 0.027-1.707-0.202-2.299-0.435-1.106-1.398-1.734-2.888-1.883-1.386-0.139-2.382 0.142-2.988 0.841-0.607 0.699-0.975 1.694-1.105 2.986l-0.637 6.368zm-11.615 1.699 0.284-2.833 8.968 0.897 0.627-6.265c0.113-1.125 0.067-1.963-0.136-2.514-0.373-0.969-1.24-1.554-2.6-1.755l-3.47-0.52c-0.813-0.119-1.358-0.222-1.637-0.307-0.279-0.086-0.504-0.185-0.675-0.298l0.348-3.473 0.47 0.047c0.146 0.455 0.542 0.802 1.19 1.039 0.378 0.143 0.965 0.269 1.759 0.377l2.794 0.381c1.21 0.169 2.065 0.487 2.565 0.954 0.499 0.467 0.874 1.125 1.125 1.974 0.577-0.881 1.29-1.541 2.139-1.978 0.849-0.438 1.9-0.594 3.152-0.468 2.401 0.24 3.951 1.37 4.65 3.388 0.363 1.062 0.467 2.376 0.31 3.941l-0.951 9.506-20.912-2.093z" stroke="#2a3e7a" stroke-width=".01" fill="none"/></g></g></g><text id="text5380" transform="matrix(.0073002 -.99997 -.99997 -.0073002 520.53 406.64)" font-size="29.301px" font-family="Helvetica" fill="#000000"><tspan id="tspan5382" y="0" x="0">A</tspan></text>
<g id="g5384" transform="translate(529.19 400.21)"><path id="path5386" d="m0 0 9.31-3.295-9.262-3.303-0.048 6.598zm-8.657 5.974 0.022-2.918 6.311-2.234 0.06-8.245-6.278-2.24 0.022-3.119l20.961 7.782-0.023 3.213-21.075 7.761z" stroke="#2a3e7a" stroke-width=".01" fill="none"/></g><text id="text5388" transform="matrix(-.077898 -.99696 -.99696 .077898 520.65 387.52)" font-size="29.301px" font-family="Helvetica" fill="#000000"><tspan id="tspan5390" y="0" x="0">T</tspan></text>
<g id="g5392" transform="translate(541.57 385.41)"><path id="path5394" d="m0 0-2.496 0.195-0.552-7.061-18.457 1.443-0.224-2.867 18.457-1.443-0.552-7.06 2.497-0.195l1.327 16.988z" stroke="#2a3e7a" stroke-width=".01" fill="none"/></g><text id="text5396" transform="matrix(-.13709 -.99056 -.99056 .13709 519.15 369.99)" font-size="29.301px" font-family="Helvetica" fill="#000000"><tspan id="tspan5398" y="0" x="0">I</tspan></text>
<g id="g5400" transform="translate(518.75 367.14)"><path id="path5402" d="m0 0-0.394-2.849 20.819-2.881 0.394 2.849-20.819 2.881z" stroke="#2a3e7a" stroke-width=".01" fill="none"/></g><text id="text5404" transform="matrix(-.20699 -.97834 -.97834 .20699 518.35 362.22)" font-size="29.302px" font-family="Helvetica" fill="#000000"><tspan id="tspan5406" y="0" x="0">O</tspan></text>
<g id="g5408"><g id="g5410" clip-path="url(#clipPath5412)"><g id="g5416" transform="translate(537.13 346.69)"><path id="path5418" d="m0 0c0.734 3.471 0.02 6.362-2.143 8.672-1.686 1.8-3.92 2.994-6.701 3.582-3.079 0.652-5.797 0.384-8.155-0.804-2.473-1.368-4.044-3.634-4.713-6.798-0.717-3.387-0.075-6.248 1.927-8.583 1.705-1.988 4.092-3.308 7.163-3.957 2.836-0.6 5.309-0.412 7.417 0.566 2.702 1.251 4.437 3.692 5.205 7.322zm-19.306 3.792c0.547 2.585 1.724 4.288 3.533 5.11 1.808 0.821 3.851 0.991 6.13 0.509 2.849-0.603 4.862-1.731 6.039-3.384s1.541-3.543 1.091-5.671c-0.464-2.193-1.568-3.765-3.311-4.718-1.743-0.952-3.824-1.172-6.243-0.66-2.288 0.484-4.197 1.46-5.725 2.929-1.529 1.469-2.033 3.431-1.514 5.885z" stroke="#2a3e7a" stroke-width=".01" fill="none"/></g></g></g><text id="text5420" transform="matrix(-.30450 -.95251 -.95251 .30450 513.72 340.42)" font-size="29.3px" font-family="Helvetica" fill="#000000"><tspan id="tspan5422" y="0" x="0">N</tspan></text>
<g id="g5424" transform="translate(513.04 338.29)"><path id="path5426" d="m0 0-0.828-2.589 16.155-5.165-19.393-4.966-0.974-3.047 20.018-6.399 0.828 2.589-16.174 5.171 19.365 4.812l1.021 3.194-20.018 6.4z" stroke="#2a3e7a" stroke-width=".01" fill="none"/></g><g id="g5428"><g id="g5430" clip-path="url(#clipPath5432)"><g id="g5436" transform="translate(486.5,484.75)"><path id="path5438" d="m0 0c0.11 0.045 24.75-48.75 20.378-100.62-2.378-87.13-79.378-185.96-194.13-189.17l-16 0.333c-118.25 5.877-190.92 106.21-190.58 196.88 0.291 16.855 0.224 35.697 7.333 59.001l7.25-2.167c30.305-11.454 63-100 169.29-105.04 4.615-0.219 13.478-0.423 13.458-0.46-6.88-6.864-46-23-63.75-27.25 4.642 1.111-0.363 0.114 0 0 42.75-26.5 85.5 24.5 141 32l17 1c-3.25 10.25-17.882 9.385-19.25 9.25-38.399-3.78-28.807 0.624-30 0.25 59 18.5 93 65.75 135.46 123.21l2.54 2.79z" fill="#007ec5"/></g><g id="g5440" transform="translate(307.3 596.86)"><path id="path5442" d="m0 0c-0.498 0.008-0.738 0.011 0 0" fill="#263f78"/></g><g id="g5444" transform="translate(308.83 596.83)"><path id="path5446" d="m0 0s-0.485 0.007-0.979 0.015c0.268-0.004 0.577-0.009 0.979-0.015" fill="#263f78"/></g><g id="g5448" transform="translate(307.85 596.85)"><path id="path5450" d="m0 0c-0.224 0.003-0.409 0.006-0.553 0.009 0.168-0.003 0.359-0.006 0.553-0.009" fill="#263f78"/></g><g id="g5452" transform="translate(371.89 507.29)"><path id="path5454" d="m0 0 0.041-9.667c0-2.166-3.75-1.583-5.25-1.583-1.75 0-5.416-0.583-5.416 1.5l-0.084 6.417s-0.07 4.261 0.209 4.708c0.625 1 3.12 1.25 4.75 1.25 2 0 2.849 0.051 4.5-0.5 0.75-0.25 1.25-2.125 1.25-2.125m-86.511-13.789s0.322-15.468-0.208-16.333c-0.792-1.292-1.625-2.225-5.417-2.167-2.708 0.042-4.226 1.142-4.75 1.875-0.625 0.875-0.5 14.5-0.5 14.5s-0.058 16.362 0 16.792c0.125 0.917 0.75 1.583 5 1.583 2.875 0 5.369 0.154 5.667-1.333 0.208-1.042 0.208-14.917 0.208-14.917m43.25 13.75 0.041-9.666c0-2.167-3.75-1.584-5.25-1.584-1.75 0-5.416-0.583-5.416 1.5l-0.084 6.417s-0.07 4.262 0.209 4.708c0.625 1 3.12 1.25 4.75 1.25 2 0 2.848 0.051 4.5-0.5 0.75-0.25 1.25-2.125 1.25-2.125m43.281-41.19-0.076 18.104s0.181 1.5-0.944 2.375c-1.272 0.99-4.249 0.926-4.249 0.926s-4.317-0.337-4.876-1.176c-0.5-0.75-0.625-1.75-0.625-1.75l0.083-18.542-11.562 0.021 0.02 42.771c0.061 5.067 6.69 9.471 8.75 9.583l9 0.167 6.212-0.048c6.519 0.262 9.105-6.201 9.622-8.702l0.083-43.667-11.438-0.062zm-43.261-0.038-0.075 18.103s0.18 1.5-0.945 2.375c-1.272 0.99-4.248 0.926-4.248 0.926s-4.317-0.336-4.877-1.176c-0.5-0.75-0.625-1.75-0.625-1.75l0.084-18.541-11.563 0.02 0.021 42.771c0.06 5.067 6.69 9.471 8.749 9.584l9 0.166 6.211-0.047c6.521 0.262 9.107-6.202 9.623-8.703l0.084-43.666-11.439-0.062zm-31.811 9.789c-0.101-2.836-2.375-9.915-9.334-9.894l-13.416 0.062c-9.959 0.021-10.709 8.646-10.896 12.771v28.08c-0.021 7.481 1.479 11.92 15.396 12.004h2.166c12.917 0 15.917-4 16.084-11.25v-31.773zm-43-9.894-5.73-0.021-5.687 0.021-0.021 21.573s0.44 20.056-0.271 21.135c-1.041 1.584-3.791 1.209-5.125 1.209-2.456 0-5 0.416-5.5-1.334-0.565-1.979-0.416-19.416-0.416-19.416l-0.084-23.167h-5.666l-5.584 0.083v27.417 25.333l24.917 0.084c3.167-0.25 5.35-2.387 6.994-4.352 1.589-1.898 2.221-4.062 2.173-4.065l-0.084-21.917 0.084-22.583zm146.91 107.08c-4.123 2.193-38.75 23-91.916 23.834-115.25-0.415-166-85-166-85 25.5-12.5 51.96-50.144 52.333-50.667 28.537-40.04 68.307-102.1 119.84-103.29 16.498-0.38 27.472 9.49 39.998 21.62 45.744 44.303 52.149 126.21 110.75 137.75 0 0-21.75 32.75-65 55.75" fill="#263f78"/></g></g></g></g></svg>
